<svg width="102" height="35" viewBox="0 0 102 35" fill="none" xmlns="http://www.w3.org/2000/svg">
<path fill-rule="evenodd" clip-rule="evenodd" d="M41.0283 24.954C37.5326 27.5307 32.4657 28.9054 28.1032 28.9054C21.9864 28.9054 16.4797 26.643 12.3136 22.8801C11.9863 22.5842 12.2795 22.181 12.6723 22.4114C17.1683 25.0273 22.7274 26.6011 28.4699 26.6011C32.3426 26.6011 36.603 25.7998 40.5203 24.137C41.1121 23.8857 41.607 24.5246 41.0283 24.954Z" fill="#FF9900"/>
<path fill-rule="evenodd" clip-rule="evenodd" d="M42.4816 23.2913C42.0365 22.7204 39.5279 23.0215 38.4019 23.1551C38.0589 23.197 38.0065 22.8985 38.3156 22.6837C40.3135 21.2776 43.5918 21.6835 43.9742 22.1548C44.3565 22.6287 43.8747 25.915 41.9972 27.4835C41.7091 27.7244 41.4342 27.596 41.5625 27.2767C41.984 26.224 42.9293 23.8647 42.4816 23.2913Z" fill="#FF9900"/>
<path fill-rule="evenodd" clip-rule="evenodd" d="M38.4805 12.757V11.3899C38.4805 11.1831 38.6376 11.0443 38.8261 11.0443H44.9457C45.1421 11.0443 45.2991 11.1857 45.2991 11.3899V12.5604C45.2965 12.7568 45.1316 13.0135 44.8383 13.4194L41.6672 17.9468C42.8456 17.918 44.0894 18.0934 45.1577 18.6956C45.3986 18.8318 45.4641 19.0308 45.4825 19.2272V20.6857C45.4825 20.8847 45.2625 21.1179 45.0321 20.9973C43.1494 20.0101 40.6486 19.9028 38.5669 21.0078C38.3548 21.123 38.1323 20.8926 38.1323 20.6936V19.3085C38.1323 19.0859 38.1348 18.7062 38.3574 18.3684L42.0313 13.0999H38.834C38.6376 13.0999 38.4805 12.9613 38.4805 12.757ZM16.1576 21.2855H14.2958C14.1177 21.2723 13.9763 21.1388 13.9633 20.9687V11.4137C13.9633 11.2225 14.1229 11.0706 14.322 11.0706H16.0581C16.2388 11.0785 16.3828 11.2173 16.3959 11.39V12.6391H16.4299C16.8829 11.4319 17.7339 10.8689 18.8809 10.8689C20.0461 10.8689 20.7741 11.4319 21.2977 12.6391C21.7481 11.4319 22.772 10.8689 23.8691 10.8689C24.6494 10.8689 25.5031 11.191 26.0241 11.9137C26.6133 12.7177 26.4928 13.8855 26.4928 14.9094L26.4903 20.9398C26.4903 21.1309 26.3306 21.2855 26.1316 21.2855H24.2724C24.0865 21.2723 23.9372 21.1231 23.9372 20.9398V15.8756C23.9372 15.4723 23.9739 14.4668 23.8848 14.0845C23.7461 13.443 23.3297 13.2623 22.7903 13.2623C22.3399 13.2623 21.8686 13.5635 21.6774 14.0453C21.4863 14.5271 21.5046 15.3335 21.5046 15.8756V20.9398C21.5046 21.1309 21.3449 21.2855 21.1458 21.2855H19.2866C19.0982 21.2723 18.9515 21.1231 18.9515 20.9398L18.9489 15.8756C18.9489 14.8098 19.1244 13.2413 17.802 13.2413C16.4639 13.2413 16.5163 14.7706 16.5163 15.8756V20.9398C16.5163 21.1309 16.3566 21.2855 16.1576 21.2855ZM50.5676 10.869C53.3302 10.869 54.8253 13.2413 54.8253 16.2579C54.8253 19.1723 53.1731 21.4845 50.5676 21.4845C47.8548 21.4845 46.3779 19.1121 46.3779 16.1557C46.3779 13.181 47.8732 10.869 50.5676 10.869ZM50.5834 12.8198C49.2112 12.8198 49.1248 14.6893 49.1248 15.8546C49.1248 17.0225 49.1064 19.5153 50.5676 19.5153C52.0105 19.5153 52.0785 17.5043 52.0785 16.2789C52.0785 15.4723 52.0445 14.5087 51.8009 13.7441C51.5914 13.079 51.1751 12.8198 50.5834 12.8198ZM58.4074 21.2855H56.5535C56.3676 21.2723 56.2184 21.1231 56.2184 20.9398L56.2157 11.3822C56.2315 11.2068 56.386 11.0707 56.5745 11.0707H58.3002C58.4624 11.0785 58.596 11.1884 58.6327 11.3377V12.7987H58.6667C59.1878 11.4922 59.9183 10.869 61.2041 10.869C62.0394 10.869 62.8537 11.1701 63.3774 11.995C63.8644 12.7595 63.8644 14.0452 63.8644 14.9697V20.9843C63.8435 21.1519 63.689 21.2855 63.5058 21.2855H61.6386C61.4685 21.2723 61.3271 21.1467 61.3087 20.9843V15.7944C61.3087 14.7496 61.4292 13.2204 60.1435 13.2204C59.6904 13.2204 59.2741 13.5241 59.0673 13.985C58.8054 14.569 58.7714 15.1503 58.7714 15.7944V20.9398C58.7687 21.1309 58.6064 21.2855 58.4074 21.2855ZM65.0297 20.5261C65.0297 20.0443 65.4408 19.6567 65.9462 19.6567C66.4515 19.6567 66.8627 20.0443 66.8627 20.5261C66.8627 21.0053 66.4516 21.3981 65.9462 21.3981C65.4408 21.3981 65.0297 21.0053 65.0297 20.5261M84.7551 21.2881C84.5613 21.2802 84.4095 21.1309 84.4095 20.9424V11.3874C84.4199 11.2173 84.5639 11.0836 84.742 11.0732H85.4254C85.6139 11.0732 85.7658 11.2094 85.7815 11.3875V12.7805C86.2686 11.6754 87.1747 10.8114 88.3189 10.8114H88.4577C89.6727 10.8114 90.5603 11.7069 90.8903 13.0083C91.4061 11.7226 92.375 10.8114 93.6528 10.8114H93.7943C94.6977 10.8114 95.567 11.3927 96.0173 12.2777C96.4521 13.1236 96.4363 14.2494 96.4363 15.1948L96.4337 20.9424C96.4363 21.1257 96.2871 21.275 96.1012 21.2881H95.2842C95.1061 21.2802 94.9621 21.1546 94.9386 20.9895V15.1948C94.9386 14.5114 94.9726 13.786 94.695 13.1628C94.4121 12.5265 93.8702 12.1285 93.2888 12.0997C92.6395 12.1311 92.0424 12.605 91.6549 13.2439C91.1521 14.0688 91.1705 14.8125 91.1705 15.7761V20.9948C91.1469 21.1519 91.0081 21.275 90.8379 21.2881H90.0261C89.8323 21.2802 89.6779 21.1309 89.6779 20.9424L89.6727 14.8125C89.6727 14.2494 89.6386 13.587 89.3794 13.0816C89.0783 12.5055 88.5388 12.1284 87.9733 12.0997C87.3867 12.1337 86.7949 12.5815 86.444 13.1026C85.991 13.7676 85.9046 14.5899 85.9046 15.4356V20.9424C85.9046 21.1257 85.7553 21.275 85.5694 21.2881H84.7551ZM79.1462 21.4871C76.5041 21.4871 75.3205 18.7926 75.3205 16.0982C75.3205 13.2649 76.711 10.8114 79.3714 10.8114H79.5127C82.0998 10.8114 83.3882 13.4246 83.3882 16.1191C83.3882 18.9733 81.9611 21.4871 79.285 21.4871H79.1462ZM79.34 20.1805C80.2093 20.1516 80.8954 19.6122 81.3012 18.7141C81.6652 17.9075 81.736 16.9832 81.736 16.0982C81.736 15.1345 81.6312 14.129 81.1782 13.3042C80.7723 12.5841 80.0758 12.1259 79.3374 12.0997C78.5152 12.1284 77.7793 12.6863 77.4101 13.5451C77.0775 14.2888 76.9754 15.2759 76.9754 16.0982C76.9754 17.0225 77.0959 18.0909 77.4782 18.8948C77.85 19.6567 78.565 20.1516 79.34 20.1805ZM70.89 20.1386C72.0762 20.1018 72.6994 19.1514 72.956 17.9206C73.0084 17.7661 73.1262 17.6484 73.2991 17.6484L74.082 17.6457C74.2679 17.6536 74.438 17.795 74.4224 17.9678C74.061 20.0653 72.7963 21.4871 70.9947 21.4871H70.8533C68.2296 21.4871 67.0984 18.8529 67.0984 16.1794C67.0984 13.5267 68.2452 10.8114 70.8691 10.8114H71.0105C72.8329 10.8114 74.1317 12.2149 74.4145 14.3123C74.4145 14.4694 74.2679 14.6056 74.095 14.6239L73.2754 14.6135C73.1027 14.5898 72.99 14.4432 72.9639 14.2783C72.7675 13.1078 72.0945 12.1756 70.9738 12.139C69.1906 12.1966 68.6825 14.3909 68.6825 16.0799C68.6825 17.7059 69.1068 20.081 70.89 20.1386ZM33.6022 16.7214C33.6022 17.4467 33.6205 18.0515 33.254 18.6957C32.9581 19.2194 32.4867 19.5415 31.9656 19.5415C31.2507 19.5415 30.8317 18.9969 30.8317 18.193C30.8317 16.6061 32.2536 16.3181 33.6022 16.3181V16.7214ZM35.4797 21.2593C35.3566 21.3692 35.1785 21.377 35.0398 21.3038C34.4218 20.7905 34.3091 20.5523 33.9714 20.0626C32.9502 21.1048 32.2249 21.4164 30.9025 21.4164C29.334 21.4164 28.1164 20.4502 28.1164 18.515C28.1164 17.0042 28.9333 15.9751 30.1012 15.4723C31.112 15.0272 32.5233 14.9486 33.6022 14.8256V14.5847C33.6022 14.1422 33.6362 13.6184 33.3744 13.2361C33.1492 12.893 32.7145 12.7517 32.3296 12.7517C31.6199 12.7517 30.9889 13.1157 30.8344 13.8698C30.8029 14.0374 30.6799 14.2023 30.5097 14.2101L28.7055 14.0164C28.5537 13.9824 28.3835 13.8593 28.428 13.6262C28.8417 11.4372 30.8213 10.7773 32.5914 10.7773C33.4974 10.7773 34.681 11.0182 35.3959 11.7043C36.3018 12.55 36.2155 13.6786 36.2155 14.9067V17.8081C36.2155 18.68 36.5768 19.0624 36.9172 19.5337C37.035 19.7013 37.0613 19.9028 36.9094 20.0286C36.5296 20.3454 35.8541 20.9345 35.4823 21.2645L35.4797 21.2593ZM9.19485 16.7214C9.19485 17.4467 9.21321 18.0515 8.84666 18.6957C8.55077 19.2194 8.08203 19.5415 7.55831 19.5415C6.84347 19.5415 6.42713 18.9969 6.42713 18.193C6.42713 16.6061 7.84901 16.3181 9.19494 16.3181L9.19485 16.7214ZM11.0724 21.2593C10.9493 21.3692 10.7713 21.377 10.6325 21.3038C10.0145 20.7905 9.90459 20.5523 9.56409 20.0626C8.54289 21.1048 7.82017 21.4164 6.49519 21.4164C4.9294 21.4163 3.70911 20.4501 3.70911 18.5149C3.70911 17.0041 4.52872 15.975 5.69393 15.4722C6.70466 15.0272 8.11606 14.9485 9.19494 14.8255V14.5847C9.19494 14.1422 9.22898 13.6184 8.96971 13.2361C8.74188 12.893 8.30727 12.7517 7.92495 12.7517C7.21531 12.7517 6.58161 13.1157 6.42713 13.8698C6.39569 14.0374 6.27264 14.2023 6.10509 14.2101L4.2983 14.0165C4.14641 13.9825 3.97885 13.8594 4.02067 13.6263C4.43702 11.4372 6.41396 10.7773 8.18412 10.7773C9.09016 10.7773 10.2737 11.0182 10.9886 11.7043C11.8946 12.55 11.8083 13.6786 11.8083 14.9067V17.8081C11.8083 18.68 12.1695 19.0624 12.5099 19.5337C12.6305 19.7013 12.6566 19.9028 12.5048 20.0286C12.125 20.3454 11.4495 20.9345 11.0777 21.2645L11.0724 21.2593Z" fill="black"/>
</svg>
