<svg width="102" height="35" viewBox="0 0 102 35" fill="none" xmlns="http://www.w3.org/2000/svg">
<path d="M84.9791 22.0208C84.9791 23.1146 84.1041 23.9896 83.0104 23.9896C81.9166 23.9896 81.0416 23.1146 81.0416 22.0208C81.0416 20.9271 81.9166 20.0521 83.0104 20.0521C84.1041 20.0521 84.9791 20.9271 84.9791 22.0208ZM31.4583 6.56251C29.9271 4.37501 26.9375 4.22917 25.1875 4.22917H14.8333V23.6979H25.625C26.8646 23.6979 30.875 23.6979 32.2604 21.1458C32.9896 19.9063 32.9896 17.7917 32.2604 16.4792C31.3125 14.875 30.2916 14.4375 28.9062 14C30.5833 13.4167 31.5312 12.8333 32.1146 11.0104C32.4791 9.69792 32.4062 7.87501 31.4583 6.56251ZM21.4687 11.5938V8.45834H23.3646C24.6041 8.45834 25.3333 8.89584 25.3333 9.98959C25.3333 11.2292 24.6041 11.5208 23.3646 11.5208H21.4687V11.5938ZM21.4687 19.4688V16.3333H23.5833C24.8229 16.3333 25.5521 16.7708 25.5521 17.8646C25.5521 19.1042 24.8229 19.4688 23.5833 19.4688C23.5833 19.4688 21.4687 19.4688 21.4687 19.4688ZM39.4791 23.625L40.5729 21.2917H47.5729L48.6666 23.625H55.8125L44.3646 4.22917H43.7812L32.2604 23.625H39.4791ZM44.0729 13.6354L45.75 17.3542H42.3958L44.0729 13.6354ZM84.3229 18.8125L86.5104 4.30209H79.3646L81.5521 18.8125H84.3229ZM89.0625 4.22917C88.2604 4.22917 87.5312 4.88542 87.5312 5.68751C87.5312 6.48959 88.1875 7.14584 89.0625 7.14584C89.9375 7.14584 90.5208 6.48959 90.5208 5.68751C90.5937 4.88542 89.9375 4.22917 89.0625 4.22917ZM89.0625 4.52084C89.7187 4.52084 90.1562 5.03126 90.1562 5.68751C90.1562 6.34376 89.7187 6.85417 89.0625 6.85417C88.4062 6.85417 87.8958 6.34376 87.8958 5.68751C87.9687 5.03126 88.4062 4.52084 89.0625 4.52084ZM88.8437 5.90626H88.9896C89.2083 5.90626 89.2812 5.97917 89.2812 6.12501C89.3541 6.27084 89.3541 6.41667 89.4271 6.48959H89.7916C89.7916 6.41667 89.7187 6.34376 89.7187 6.12501C89.6458 5.90626 89.5729 5.83334 89.4271 5.76042C89.5729 5.68751 89.7187 5.61459 89.7187 5.39584C89.7187 5.25001 89.6458 5.17709 89.5729 5.10417C89.5 5.03126 89.3541 4.95834 89.0625 4.95834C88.8437 4.95834 88.625 4.95834 88.4791 5.03126V6.48959H88.8437V5.90626ZM88.8437 5.25001C88.8437 5.25001 88.9166 5.25001 89.0625 5.25001C89.2812 5.25001 89.3541 5.32292 89.3541 5.46876C89.3541 5.61459 89.2083 5.68751 88.9896 5.68751H88.8437V5.25001ZM71.4166 16.625L71.7812 23.625H78.125L77.5416 4.22917H77.0312L67.4791 11.8125L58 4.22917H57.4896L56.9062 23.625H63.25L63.6146 16.625L67.5521 19.7604L71.4166 16.625Z" fill="#002855"/>
<path d="M19.5 26.6875C19.7916 27.0521 19.7916 27.5625 19.6458 27.9271C19.5 28.4375 19.2083 28.5833 18.6979 28.8021C19.0625 28.9479 19.3541 29.0208 19.6458 29.5313C19.8646 29.8958 19.8646 30.4792 19.6458 30.8438C19.2812 31.5729 18.1146 31.5729 17.75 31.5729H14.8333V26.1042H17.75C18.2604 26.0313 19.0625 26.0312 19.5 26.6875ZM16.6562 28.0729H17.1666C17.5312 28.0729 17.75 28 17.75 27.6354C17.75 27.3438 17.5312 27.1979 17.1666 27.1979H16.6562V28.0729ZM16.6562 30.3333H17.2396C17.6041 30.3333 17.8229 30.2604 17.8229 29.8958C17.8229 29.6042 17.6041 29.4583 17.2396 29.4583H16.6562V30.3333Z" fill="#002855"/>
<path d="M20.2292 28.8021C20.2292 27.1979 21.5417 25.8854 23.2917 25.8854C25.0417 25.8854 26.3542 27.1979 26.3542 28.8021C26.3542 30.4063 25.0417 31.7188 23.2917 31.7188C21.6146 31.7188 20.2292 30.4063 20.2292 28.8021ZM23.2917 29.9688C23.9479 29.9688 24.3854 29.4583 24.3854 28.8021C24.3854 28.1458 23.875 27.6354 23.2917 27.6354C22.6354 27.6354 22.125 28.1458 22.125 28.8021C22.1979 29.3854 22.6354 29.9688 23.2917 29.9688Z" fill="#002855"/>
<path d="M26.7917 28.8021C26.7917 27.1979 28.1042 25.8854 29.8542 25.8854C31.6042 25.8854 32.9167 27.1979 32.9167 28.8021C32.9167 30.4063 31.6042 31.7188 29.8542 31.7188C28.1042 31.7188 26.7917 30.4063 26.7917 28.8021ZM29.7813 29.9688C30.4375 29.9688 30.875 29.4583 30.875 28.8021C30.875 28.1458 30.3646 27.6354 29.7813 27.6354C29.125 27.6354 28.6146 28.1458 28.6146 28.8021C28.6875 29.3854 29.125 29.9688 29.7813 29.9688Z" fill="#002855"/>
<path d="M44.9479 29.6771C45.3854 29.6771 45.75 29.3125 45.75 28.875C45.75 28.4375 45.3854 28.0729 44.9479 28.0729C44.4375 28.0729 44.1458 28.4375 44.1458 28.875C44.1458 29.3125 44.4375 29.6771 44.9479 29.6771Z" fill="#002855"/>
<path d="M52.6771 29.6771C53.1146 29.6771 53.4792 29.3125 53.4792 28.875C53.4792 28.4375 53.1146 28.0729 52.6771 28.0729C52.1667 28.0729 51.875 28.4375 51.875 28.875C51.8021 29.3125 52.1667 29.6771 52.6771 29.6771Z" fill="#002855"/>
<path d="M35.3229 26.0312V28.2917L36.7812 26.0312H38.8229L37.1458 28.5104L39.0416 31.5H36.7812L35.3229 29.1667V31.5H33.4271V26.0312H35.3229Z" fill="#002855"/>
<path d="M42.1042 27.6354C41.9584 27.2708 41.8854 27.125 41.5209 27.125C41.375 27.125 41.0834 27.125 40.9375 27.2708C40.8646 27.4167 40.8646 27.4896 40.8646 27.5625C41.0104 27.8542 41.4479 27.8542 41.7396 27.8542C42.25 27.8542 42.9792 28 43.4167 28.7292C43.7084 29.2396 43.7084 29.9688 43.4167 30.4792C42.9792 31.2813 42.25 31.5729 41.5938 31.6458C41.0834 31.7188 39.9896 31.6458 39.4063 30.9896C39.2604 30.8438 39.1875 30.6979 39.0417 30.4063L40.3542 29.8958C40.5729 30.2604 40.7917 30.4792 41.1563 30.4792C41.3021 30.4792 41.5938 30.4063 41.6667 30.2604C41.7396 30.1875 41.7396 30.0417 41.6667 29.8958C41.5209 29.6771 41.2292 29.6771 40.8646 29.6771C40.4271 29.6771 39.625 29.4583 39.2604 28.8021C38.9688 28.2917 38.9688 27.6354 39.2604 27.0521C39.625 26.3229 40.2813 26.1042 40.8646 26.0313C41.3021 25.9583 42.3959 25.9583 42.9792 26.5417C43.125 26.7604 43.2709 26.9792 43.3438 27.1979L42.1042 27.6354Z" fill="#002855"/>
<path d="M47.4271 31.5H45.3854L48.6667 25.8854H48.8125L52.0938 31.5H50.0521L49.7604 30.8438H47.7188L47.4271 31.5ZM48.7396 28.5833L48.2292 29.6771H49.1771L48.7396 28.5833Z" fill="#002855"/>
<path d="M54.2083 25.9583L56.8333 28.1458L59.6042 25.9583H59.75L59.8958 31.5H58.0729L58 29.4583L56.8333 30.4062L55.5937 29.4583L55.5208 31.5H53.8438L54.0625 25.9583H54.2083Z" fill="#002855"/>
<path d="M62.5938 26.0312V31.5H60.6979V26.0312H62.5938Z" fill="#002855"/>
<path d="M65.5104 26.0312V30.2604H67.1875V31.5H63.6875V26.0312H65.5104Z" fill="#002855"/>
<path d="M69.8125 26.0312V30.2604H71.4896V31.5H67.9896V26.0312H69.8125Z" fill="#002855"/>
<path d="M73.9688 26.0312V31.5H72.0729V26.0312H73.9688Z" fill="#002855"/>
<path d="M74.4062 28.8021C74.4062 27.1979 75.7188 25.8854 77.4688 25.8854C79.2188 25.8854 80.5313 27.1979 80.5313 28.8021C80.5313 30.4063 79.2188 31.7188 77.4688 31.7188C75.7188 31.7188 74.4062 30.4063 74.4062 28.8021ZM77.4688 29.9688C78.125 29.9688 78.5625 29.4583 78.5625 28.8021C78.5625 28.1458 78.0521 27.6354 77.4688 27.6354C76.8125 27.6354 76.3021 28.1458 76.3021 28.8021C76.3021 29.3854 76.8125 29.9688 77.4688 29.9688Z" fill="#002855"/>
<path d="M81.1146 25.9583L84.6146 28.1458V26.0312H86.5104V31.6458H86.3646L82.7916 29.4583V31.5H80.8958V25.9583H81.1146Z" fill="#002855"/>
</svg>
