<svg width="102" height="35" viewBox="0 0 102 35" fill="none" xmlns="http://www.w3.org/2000/svg">
<path d="M56.44 22.5622C55.76 23.1667 54.9289 23.4689 54.0222 23.4689C53.1155 23.4689 52.4355 23.1667 51.9067 22.6378C51.3778 22.1089 51.1511 21.4289 51.1511 20.5222C51.1511 19.3889 51.6044 18.4067 52.4355 17.7267L52.5111 17.6511L56.5155 22.4867L56.44 22.5622ZM51.9822 13.5711C51.9067 12.8156 52.2089 12.1356 52.8133 11.8333C53.3422 11.5311 54.1733 11.5311 54.6267 11.9845C55.08 12.3622 55.3067 12.8911 55.3067 13.6467C55.1555 14.7045 54.7022 15.6111 53.6444 16.4422L53.5689 16.5178L53.4933 16.4422C52.6622 15.5356 52.0578 14.7045 51.9822 13.5711ZM60.5955 23.6956C60.1422 23.6956 59.7644 23.5445 59.3867 23.2422C59.0844 22.94 58.7067 22.5622 58.3289 21.9578V21.8067C58.9333 20.9 59.2355 19.7667 59.2355 18.4822C59.2355 18.18 59.2355 17.9533 59.16 17.5756C59.16 17.4245 59.2355 17.2733 59.3867 17.2733L60.3689 17.1222V16.8956H56.8933V17.1222L57.8755 17.3489C58.0267 17.3489 58.1022 17.4245 58.1778 17.5C58.2533 17.5756 58.3289 17.6511 58.3289 17.8022C58.3289 18.0289 58.4044 18.3311 58.4044 18.7089C58.4044 19.6156 58.1778 20.5222 57.8 21.2778L57.7244 21.4289L53.72 16.82L53.8711 16.7445C55.6089 15.8378 56.44 14.8556 56.44 13.5711C56.44 12.74 56.2133 12.1356 55.6844 11.6822C55.1555 11.2289 54.4755 11.0022 53.6444 11.0022C52.7378 11.0022 51.9067 11.3045 51.3022 11.8333C50.6978 12.3622 50.3955 13.0422 50.3955 13.8733C50.3955 14.3267 50.4711 14.78 50.6978 15.2333C50.8489 15.6867 51.3022 16.2911 51.9067 17.1222L51.9822 17.2733L51.8311 17.3489C50.1689 18.2556 49.3378 19.4645 49.3378 20.8245C49.3378 21.8822 49.7155 22.7133 50.5467 23.2422C51.3778 23.8467 52.36 24.1489 53.5689 24.1489C54.8533 24.1489 55.9867 23.7711 57.0444 22.94L57.12 22.8645L57.1955 22.94C57.8 23.7711 58.6311 24.1489 59.4622 24.1489C59.9155 24.1489 60.2933 24.0733 60.7467 23.8467L60.6711 23.5445C60.7467 23.6956 60.6711 23.6956 60.5955 23.6956Z" fill="#99866A"/>
<path d="M63.9955 17.1222C64.0711 18.86 64.1466 19.3133 64.1466 20.8244V24.0733H62.0311V11.38H64.1466C64.1466 11.38 65.2044 15.0822 65.3555 15.9133C65.5822 16.7444 65.7333 17.3489 65.8844 17.8778C65.8089 16.6689 65.8089 15.0822 65.8089 13.8733V11.3044H67.9244V23.9222H66.0355C66.0355 23.9222 64.8266 19.9933 64.6 19.2378C64.3733 18.7089 64.2222 18.0289 63.9955 17.1222ZM75.48 17.6511C75.48 23.0911 74.5733 24.2244 72.4578 24.2244C70.4933 24.2244 69.4355 23.3933 69.4355 17.6511C69.4355 12.06 70.2666 11.1533 72.4578 11.1533C74.6489 11.1533 75.48 12.1356 75.48 17.6511ZM73.0622 17.6511C73.0622 15.6867 73.0622 14.4778 72.9866 13.5711C72.9111 12.6644 72.76 12.4378 72.4578 12.4378C72.08 12.4378 71.9289 12.5889 71.8533 13.5711C71.7778 14.4778 71.7778 15.6867 71.7778 17.6511C71.7778 19.9178 71.7778 20.8244 71.8533 21.7311C71.9289 22.7133 72.08 22.7889 72.4578 22.7889C72.8355 22.7889 72.9111 22.7133 72.9866 21.7311C73.0622 20.8244 73.0622 19.9933 73.0622 17.6511ZM83.1866 20.3711C83.1866 23.0156 81.9778 23.9222 79.9378 23.9222H76.9911V11.38H79.9378C82.2044 11.38 82.8089 12.74 82.8089 14.8556C82.8089 16.4422 82.2044 17.2733 81.2222 17.2733C82.28 17.1978 83.1866 18.3311 83.1866 20.3711ZM79.2578 18.0289V22.4867H79.8622C80.5422 22.4867 80.7689 22.1089 80.7689 20.1444C80.7689 18.7089 80.6178 18.0289 79.8622 18.0289H79.2578ZM79.2578 12.8156V16.4422H79.8622C80.4666 16.4422 80.6178 15.9133 80.6178 14.8556C80.6178 13.42 80.4666 12.8156 79.7111 12.8156H79.2578ZM84.4711 11.3044V23.9978H89.6089V22.1089H86.8889V11.3044H84.4711ZM90.8933 11.3044V23.9978H96.0311V22.1089H93.16V18.4067H95.3511V16.6689H93.16V13.2689H95.6533V11.3044H90.8933ZM12.0133 20.3711C12.0133 23.0156 10.8044 23.9222 8.76442 23.9222H5.81775V11.3044H8.76442C11.0311 11.3044 11.6355 12.6644 11.6355 14.78C11.6355 16.3667 11.0311 17.1978 10.0489 17.1978C11.1066 17.1978 12.0133 18.3311 12.0133 20.3711ZM8.08442 18.0289V22.4867H8.68886C9.36886 22.4867 9.59553 22.1089 9.59553 20.1444C9.59553 18.7089 9.44442 18.0289 8.68886 18.0289H8.08442ZM8.08442 12.8156V16.4422H8.68886C9.2933 16.4422 9.44442 15.9133 9.44442 14.8556C9.44442 13.42 9.2933 12.8156 8.53775 12.8156H8.08442ZM24.8577 17.5C26.2933 17.9533 26.52 19.6156 26.52 21.1267C26.52 22.3356 26.52 23.3933 26.7466 23.9978H24.3289C24.2533 23.5444 24.1777 23.2422 24.1777 22.1089V20.5222C24.1777 19.54 23.8 18.7844 23.12 18.5578H22.9689V23.9978H20.6266V11.3044H24.1022C25.7644 11.3044 26.8222 12.2111 26.8222 14.4778C26.7466 16.5178 25.84 17.3489 24.8577 17.5ZM22.8933 12.8911V16.5933H23.5733C24.1777 16.5933 24.4044 16.2156 24.4044 15.0067C24.4044 13.1178 24.0266 12.8911 23.3466 12.8911H22.8933ZM30.2977 17.1222C30.3733 18.86 30.4489 19.3133 30.4489 20.8244V24.0733H28.3333V11.3044H30.4489C30.4489 11.3044 31.5066 15.0067 31.6578 15.8378C31.8844 16.6689 32.0355 17.2733 32.1866 17.8022C32.1111 16.5933 32.1111 15.0067 32.1111 13.7978V11.3044H34.2266V23.9978H32.3377C32.3377 23.9978 31.1289 20.0689 30.9022 19.3133C30.6755 18.7089 30.4489 18.0289 30.2977 17.1222ZM35.9644 11.3044V23.9978H41.1022V22.1089H38.2311V18.4067H40.4222V16.6689H38.2311V13.1933H40.7244V11.3044H35.9644ZM44.5022 21.0511C44.5022 22.4867 44.8044 22.7133 45.3333 22.7133C45.7111 22.7133 46.0889 22.4867 46.0889 21.0511C46.0889 19.7667 45.2577 18.9356 44.2 17.7267C43.3689 16.7444 42.3111 15.3089 42.3111 14.1C42.3111 12.2111 43.2177 11.0778 45.0311 11.0778C46.8444 11.0778 47.8266 12.06 47.8266 13.8733C47.8266 14.3267 47.7511 14.6289 47.6755 14.9311H45.7111C45.7111 14.7044 45.7866 14.4022 45.7866 14.0244C45.7866 12.8156 45.6355 12.4378 45.1066 12.4378C44.5777 12.4378 44.5022 12.8911 44.5022 13.7978C44.5022 14.9311 45.4089 15.8378 46.24 16.82C47.3733 18.18 48.2044 19.3133 48.2044 20.5978C48.2044 22.6378 47.2978 24.1489 45.2578 24.1489C43.4444 24.1489 42.3111 23.2422 42.3111 20.9756C42.3111 20.4467 42.3111 20.0689 42.4622 19.6156H44.5777C44.5777 20.22 44.5022 20.5222 44.5022 21.0511ZM12.8444 23.9978L14.7333 11.2289H17L19.2666 23.9978H16.8489L16.6222 21.9578H15.1111L14.8844 23.9978H12.8444ZM15.2622 20.5222H16.4711C16.4711 20.5222 16.32 19.0867 16.1689 18.1044C16.0933 17.5 15.8666 15.6867 15.7911 14.4022C15.7911 15.6867 15.5644 17.5 15.4889 18.1044C15.4133 19.0867 15.2622 20.5222 15.2622 20.5222Z" fill="#35614A"/>
</svg>
