<svg width="102" height="35" viewBox="0 0 102 35" fill="none" xmlns="http://www.w3.org/2000/svg">
<path fill-rule="evenodd" clip-rule="evenodd" d="M92.1399 15.1586C92.4771 15.1586 92.5425 15.3817 92.5425 15.7359V16.09C92.5425 16.2529 92.5735 16.2529 92.5735 16.2529C92.6802 16.2529 92.7765 16.1715 92.9176 16.044L92.9864 15.9838C93.4878 15.5016 94.145 15.2279 94.8311 15.2153C96.7755 15.2153 98.0866 16.6814 98.0764 18.87C98.0764 21.2427 96.5105 23.0346 94.4456 23.0346C93.7978 23.0316 93.1619 22.8546 92.601 22.5211L92.5425 22.5565C92.5425 23.6012 92.5597 24.5857 92.6664 24.7769C92.7801 24.9099 92.9418 24.9893 93.1138 24.9965C93.3237 25.0425 93.5371 25.085 93.5371 25.3187C93.5371 25.7366 92.9452 25.8216 92.0263 25.8216C91.1074 25.8216 90.4983 25.7366 90.4983 25.3187C90.4983 25.0992 90.6876 25.0425 90.87 24.9858C91.0144 24.9627 91.1462 24.8873 91.2417 24.7734C91.3476 24.6082 91.3604 23.6944 91.3619 22.4614L91.3619 19.1751C91.3597 17.5622 91.3386 16.5919 91.135 16.43C91.0533 16.3898 90.9639 16.3693 90.8734 16.3698C90.66 16.3698 90.3675 16.3273 90.3675 16.0156C90.3675 15.619 91.4516 15.1586 92.1399 15.1586ZM71.216 15.1445C71.5429 15.1445 72.0385 15.8704 72.0385 16.7629C72.0385 17.117 71.9112 17.3295 71.6359 17.3295C71.3605 17.3295 71.2745 17.1312 71.1541 16.862C71.1334 16.8195 71.1128 16.7735 71.0921 16.7239C70.8237 16.1431 70.538 15.8457 69.8498 15.8457C69.5595 15.8273 69.2742 15.9293 69.0576 16.129C68.841 16.3286 68.7111 16.6092 68.6969 16.9081C68.6969 17.6804 69.2636 17.9634 70.3008 18.4267L70.4451 18.491L70.9889 18.7318L71.1024 18.7823C71.8462 19.1396 72.3282 19.9087 72.331 20.761C72.331 22.1138 71.2848 23.0558 69.7844 23.0558C69.4649 23.0485 69.1477 22.9973 68.8414 22.9035C68.7122 22.8586 68.5781 22.8301 68.4422 22.8186C68.3513 22.8278 68.2633 22.8568 68.1841 22.9035C68.1145 22.9489 68.0355 22.9768 67.9535 22.985C67.6644 22.985 67.2652 22.1174 67.2652 21.3099C67.2517 21.1747 67.2939 21.0399 67.3816 20.9383C67.4693 20.8366 67.5943 20.7775 67.7264 20.7752C67.9308 20.7752 68.0405 20.9387 68.1682 21.1728L68.2552 21.3336C68.2858 21.3886 68.3195 21.4469 68.3562 21.5083C68.6381 22.0186 69.1693 22.3286 69.7396 22.3157C70.5621 22.3157 71.1369 21.8093 71.1369 21.101C71.1369 20.5308 70.8581 20.1555 70.1698 19.8226C69.984 19.7305 69.7878 19.6526 69.5779 19.5676C69.0007 19.3783 68.4676 19.0684 68.012 18.6575C67.6445 18.2954 67.4389 17.7929 67.4442 17.2693C67.4442 16.0369 68.4284 15.1445 69.805 15.1445C70.1442 15.1548 70.4807 15.2096 70.8065 15.3074C70.9281 15.2196 71.0686 15.1636 71.216 15.1445ZM45.8183 15.1586C47.8969 15.1586 49.4077 16.7629 49.4043 18.9372C49.4043 21.271 47.7765 23.0417 45.6187 23.0417C44.6356 23.0548 43.6901 22.6535 43.0018 21.9312C42.3134 21.2088 41.9422 20.2282 41.9742 19.217C41.9375 18.1474 42.3274 17.1089 43.0534 16.3424C43.7793 15.576 44.7783 15.1483 45.8183 15.1586ZM54.5905 15.1586C56.676 15.1586 58.1833 16.7629 58.1731 18.9372C58.1731 21.271 56.5487 23.0417 54.3874 23.0417C53.405 23.0538 52.4604 22.6521 51.7728 21.9299C51.0852 21.2076 50.7144 20.2275 50.7464 19.217C50.7097 18.1474 51.0996 17.1089 51.8256 16.3424C52.5515 15.576 53.5504 15.1483 54.5905 15.1586ZM85.8765 15.1586C87.9723 15.1586 89.4624 16.7629 89.459 18.9372C89.459 21.271 87.8346 23.0417 85.6734 23.0417C84.6904 23.0548 83.7448 22.6535 83.0565 21.9312C82.3682 21.2088 81.9969 20.2282 82.029 19.217C81.9932 18.1471 82.3839 17.1086 83.1104 16.3422C83.8369 15.5759 84.8361 15.1483 85.8765 15.1586ZM60.9571 11.7696C61.3081 11.7696 61.3735 11.9927 61.3735 12.3468C61.3735 12.5558 61.3529 12.8497 61.3529 13.264C61.3288 14.0962 61.2875 15.357 61.2875 17.0462C61.2875 17.6942 61.2944 18.3069 61.3598 18.3069C61.4251 18.3069 61.6454 18.2325 62.3096 17.549C62.8499 16.9966 63.342 16.4831 63.342 16.26C63.342 16.1396 63.225 16.0865 63.0598 16.0298C62.8946 15.9731 62.7157 15.9059 62.7157 15.7111C62.7157 15.3817 63.1803 15.2543 64.371 15.2543C65.3931 15.2543 65.813 15.3782 65.813 15.6828C65.813 15.9023 65.6099 15.9661 65.3312 16.0546C64.9594 16.1577 64.6094 16.3306 64.2987 16.5645C63.6307 17.0488 63.0487 17.6478 62.578 18.3352C62.6494 18.5055 62.7444 18.6642 62.8602 18.8062C64.0864 20.4977 64.9615 21.4699 65.3965 21.8559L65.4447 21.8978L65.5418 21.9635C65.7078 22.065 65.8947 22.1263 66.0883 22.1422C66.3223 22.1811 66.5253 22.213 66.5047 22.475C66.5047 22.7867 66.0229 22.9496 65.1075 22.9496C64.5568 22.9496 64.3985 22.8327 63.9649 22.3263C63.7722 22.089 63.5416 21.7561 63.2766 21.402C62.9015 20.8921 62.4541 20.2617 61.8691 19.5534C61.7177 19.3728 61.4768 19.0647 61.3976 19.0647C61.3257 19.0647 61.3021 19.1408 61.2984 19.3994L61.2984 20.1367C61.3018 20.9757 61.3232 21.7036 61.4217 21.8588C61.5169 21.972 61.6468 22.0483 61.7899 22.0749C61.9723 22.1457 62.1616 22.2094 62.1616 22.429C62.1616 22.7831 61.7796 22.9248 60.7369 22.9248C59.6941 22.9248 59.2674 22.7902 59.2674 22.4361C59.2674 22.2059 59.4567 22.1422 59.6425 22.082C59.7853 22.0545 59.915 21.9784 60.0107 21.8659C60.1484 21.6641 60.1484 20.2298 60.1484 18.229C60.1484 15.0347 60.1174 13.3632 59.9522 13.1117C59.9006 13.0232 59.7595 12.9843 59.6081 12.9843C59.3947 12.9595 59.1297 12.9276 59.1297 12.6301C59.1297 12.4247 59.2949 12.2689 59.6872 12.0989C60.0933 11.928 60.5208 11.8171 60.9571 11.7696ZM74.9499 11.7625C75.2759 11.7625 75.3585 11.9549 75.3687 12.2659L75.3698 12.3397V12.8355C75.3537 13.3734 75.3285 14.2536 75.3254 15.4849L75.3251 15.7359V16.3556C75.3251 16.5185 75.3457 16.5185 75.3698 16.5185C75.4455 16.5185 75.5522 16.3733 75.621 16.2671C75.6899 16.1608 75.7724 16.0404 75.8826 15.9129C76.3337 15.3871 76.991 15.0983 77.6721 15.1268C79.028 15.1268 79.8402 15.8492 80.1637 17.3259C80.2221 17.6652 80.2522 18.0089 80.2539 18.3532L80.2497 18.6114V19.6774C80.2497 20.1838 80.2635 20.7469 80.2945 21.3524C80.307 21.6808 80.328 21.8424 80.4817 21.9622L80.5319 21.997L80.6005 22.0301C80.6472 22.0498 80.6957 22.0649 80.7453 22.0749C80.9036 22.1351 81.0894 22.1847 81.0894 22.429C81.0894 22.7831 80.6834 22.9177 79.6475 22.9177C78.6116 22.9177 78.1918 22.7831 78.1918 22.429C78.1918 22.1988 78.381 22.1351 78.5634 22.0749C78.7072 22.0474 78.838 21.9714 78.9351 21.8588C79.0422 21.6857 79.0541 20.7627 79.0554 19.2987L79.0556 18.7248C79.0556 16.9293 78.6151 16.221 77.4863 16.221C76.7498 16.2288 76.0609 16.597 75.6313 17.2126C75.4191 17.5288 75.3133 17.9063 75.3278 18.2877L75.3388 18.4308L75.3391 19.3176C75.341 20.7062 75.3579 21.6823 75.4627 21.8588C75.5579 21.972 75.6878 22.0483 75.831 22.0749C76.0133 22.1457 76.2026 22.2094 76.2026 22.429C76.2026 22.7831 75.7759 22.9177 74.7297 22.9177C73.6835 22.9177 73.2602 22.7831 73.2602 22.429C73.2602 22.1988 73.4495 22.1351 73.6319 22.0749C73.775 22.0483 73.905 21.972 74.0001 21.8588C74.1286 21.6704 74.1372 20.4085 74.1377 18.6143L74.1377 17.9729C74.1361 14.9406 74.1025 13.3495 73.9451 13.1047C73.8934 13.0161 73.7523 12.9772 73.6009 12.9772C73.3875 12.9524 73.1226 12.9205 73.1226 12.623C73.1226 12.4176 73.2912 12.2618 73.6801 12.0918C74.0863 11.9213 74.5137 11.8104 74.9499 11.7625ZM36.5918 11.9112C38.7599 11.9112 40.078 12.9276 40.078 14.5637C40.0818 15.5487 39.5184 16.4426 38.6429 16.8408C38.4516 16.9386 38.2524 17.0192 38.0476 17.0816C37.9374 17.1135 37.8445 17.1135 37.8445 17.1737C37.8445 17.2263 37.9552 17.2546 38.1166 17.2846L38.1887 17.2976L38.4743 17.3507L38.6255 17.3882C39.9627 17.7444 40.6705 18.6212 40.6871 19.9359C40.6871 21.8199 39.2796 22.9 36.8258 22.9C36.3613 22.9 35.9242 22.8752 35.5388 22.8504C35.2187 22.8327 34.9193 22.8115 34.6509 22.8115C34.3264 22.8115 34.055 22.8271 33.8411 22.8315L33.7389 22.8327H33.3947C32.937 22.8327 32.4139 22.7761 32.4139 22.344C32.4139 22.0997 32.6858 22.0111 32.9267 21.9332C33.0543 21.9035 33.1726 21.8414 33.2709 21.7526C33.4461 21.5433 33.462 19.9585 33.4634 17.9932L33.4634 16.9913C33.4613 14.9384 33.439 13.2784 33.2709 13.0622C33.1726 12.9734 33.0543 12.9113 32.9267 12.8816C32.6858 12.8036 32.4139 12.7187 32.4139 12.4708C32.4139 12.2435 32.5932 12.0728 32.8882 12.0105L32.9715 11.9962H33.0403C33.9721 11.9323 34.9818 11.9165 35.8234 11.9125L36.1306 11.9115L36.5918 11.9112ZM94.425 16.1963C93.2205 16.1963 92.5528 16.8797 92.5528 18.1227L92.553 20.6164C92.5546 20.9896 92.5707 21.2653 92.7318 21.4693C93.1918 21.9999 93.851 22.3017 94.542 22.298V22.2874C95.9598 22.2874 96.7755 21.2391 96.7755 19.4118C96.7755 17.457 95.8532 16.1963 94.425 16.1963ZM45.4879 15.9554C44.2146 15.9554 43.3267 17.1135 43.3267 18.7885C43.3267 20.7823 44.3867 22.2874 45.7632 22.2874C47.1777 22.2874 48.0242 21.1789 48.0242 19.3374C48.0242 17.4109 46.9333 15.9554 45.4879 15.9554ZM54.2601 15.9554C52.9868 15.9554 52.0989 17.1135 52.0989 18.7885C52.0989 20.7269 53.0975 22.2034 54.418 22.2839L54.532 22.2874H54.5389C55.9671 22.2874 56.7999 21.1789 56.793 19.3374C56.793 17.4109 55.7055 15.9554 54.2601 15.9554ZM85.5461 15.9554C84.2728 15.9554 83.3849 17.1135 83.3849 18.7885C83.3849 20.7823 84.4414 22.2874 85.818 22.2874C87.2358 22.2874 88.079 21.1789 88.079 19.3374C88.079 17.4109 86.9915 15.9554 85.5461 15.9554ZM35.3392 17.6872C34.8417 17.6872 34.7965 17.693 34.7924 18.2475L34.792 18.5477C34.7598 19.5585 34.7978 20.5703 34.9055 21.5755C34.9513 21.7572 35.5282 22.0188 36.4562 22.0445L36.6056 22.0465C38.1439 22.0501 39.1041 21.271 39.0972 20.0138C39.0972 18.3954 37.9753 17.6872 35.3392 17.6872ZM36.0791 12.7612L35.7694 12.7614C35.357 12.7638 34.9716 12.7831 34.9055 12.9134C34.8265 13.0693 34.7853 13.8407 34.7819 15.2029L34.7816 15.9377C34.7782 16.0546 34.7782 16.1502 34.7679 16.2423C34.7679 16.8195 34.8229 16.8195 35.3288 16.8195C37.5692 16.8195 38.5259 16.2069 38.5259 14.7903C38.5259 13.4446 37.7034 12.7612 36.0791 12.7612Z" fill="#2B0F42"/>
<path fill-rule="evenodd" clip-rule="evenodd" d="M23.5867 23.3209C23.3273 23.6476 23.0125 23.9259 22.6562 24.1371C22.5478 24.1952 22.4401 24.2558 22.3305 24.2967C21.5115 24.6088 20.6301 24.6209 19.7423 24.6241H14.5957H13.6881H8.24585C7.96414 24.6241 7.73597 24.3956 7.73597 24.1135V23.6955V22.654V21.3067V19.9704V18.9626C7.73597 18.7571 7.70602 18.5229 7.81373 18.3372C7.90296 18.184 8.06803 18.087 8.24585 18.087H19.124C19.8022 18.087 20.4911 18.0749 21.1712 18.1387C21.8633 18.2045 22.5243 18.4585 23.0832 18.872C23.2693 19.0207 23.4388 19.1898 23.5867 19.3762C24.0545 19.9257 24.3528 20.6143 24.358 21.3361C24.363 22.0668 24.0628 22.7669 23.5867 23.3209ZM7.73597 15.1915V13.8264V12.4148V11.319V10.9003C7.73597 10.6182 7.96414 10.3891 8.24585 10.3891C8.24585 10.3891 19.7423 10.3891 19.7493 10.391H20.4127C21.27 10.3693 22.1157 10.5908 22.8538 11.0292C23.5319 11.4862 24.0335 12.1614 24.275 12.9438C24.3477 13.1902 24.3993 13.4454 24.3963 13.7033C24.3859 14.4123 24.0781 15.0843 23.6122 15.6179C23.3515 15.9414 23.0309 16.212 22.6689 16.4156C21.8621 16.796 20.9711 16.8891 20.0813 16.8943C20.0813 16.8943 19.7474 16.8943 19.7423 16.8949H8.24585C7.93865 16.8949 7.73342 16.6224 7.73406 16.332C7.73406 15.9523 7.73597 15.5719 7.73597 15.1915ZM25.4599 20.7617C25.4146 20.4394 25.3311 20.1235 25.2056 19.8236C25.0883 19.523 24.9392 19.2364 24.7594 18.9684C24.5714 18.7054 24.3579 18.4617 24.1221 18.2408C23.9819 18.1132 23.8289 17.9919 23.6759 17.8771L23.421 17.692C23.3375 17.6282 23.2425 17.5707 23.1661 17.5069C23.4726 17.3104 23.7684 17.0978 24.0513 16.8687C24.2891 16.6581 24.5026 16.4226 24.6887 16.1667C24.8729 15.907 25.0284 15.6287 25.1546 15.3371C25.2585 15.0977 25.3458 14.8539 25.3942 14.5974C25.4911 14.0856 25.4968 13.5476 25.4229 13.0325C25.391 12.8117 25.3413 12.5935 25.2731 12.3809C25.1342 11.9521 24.9264 11.5455 24.6594 11.1818C24.5491 11.0318 24.428 10.8895 24.3005 10.7548C23.9672 10.407 23.5822 10.1115 23.1597 9.88049C22.8869 9.70881 22.5931 9.57415 22.2865 9.47842C21.5122 9.27994 20.7142 9.19187 19.9156 9.21676H19.2783H9.46317C9.46317 9.21676 5.87302 9.21676 4.67672 9.21676C4.56391 9.21676 4.47277 9.30802 4.47277 9.42673V10.1677C4.47277 10.3783 4.6831 10.3904 4.84243 10.3904H5.54988C5.54988 10.3904 5.99156 10.3923 6.13943 10.3923C6.42113 10.3923 6.65249 10.6182 6.65249 10.9003C6.65185 10.9833 6.65121 11.1499 6.65249 11.2328C6.65313 11.3247 6.65249 11.4166 6.65249 11.5079C6.65121 12.7268 6.65249 16.3843 6.65249 16.3843C6.65249 16.5247 6.59385 16.66 6.49252 16.7558C6.44217 16.8036 6.38226 16.8406 6.31788 16.8643C6.23822 16.8936 6.1611 16.8936 6.07697 16.8943C5.66524 16.8949 5.25033 16.907 4.83861 16.9083C4.77169 16.9083 4.68883 16.9025 4.6251 16.9217C4.56519 16.9396 4.51803 16.9842 4.48934 17.0391C4.46066 17.0959 4.46255 17.1534 4.46255 17.2153C4.46255 17.3167 4.46449 17.4176 4.46576 17.519C4.46704 17.6275 4.45939 17.736 4.46831 17.8432C4.47214 17.8911 4.47915 17.9396 4.50082 17.9824C4.53969 18.059 4.62255 18.089 4.70413 18.0909H5.24396H6.03363C6.19998 18.0909 6.3625 18.1119 6.48869 18.2319C6.63656 18.3729 6.65313 18.5523 6.6544 18.7431C6.65631 18.9199 6.65568 19.096 6.65568 19.2722C6.65504 19.5364 6.65249 19.8012 6.65249 20.0654V20.306V21.4765V22.1594V23.4389V24.1135C6.65249 24.3956 6.42368 24.6241 6.14198 24.6241H5.25161C5.14836 24.6241 4.9425 24.6228 4.83988 24.6241C4.77997 24.6247 4.71943 24.6234 4.68373 24.626C4.61108 24.6311 4.57602 24.6419 4.53013 24.6738C4.49062 24.7007 4.46768 24.7466 4.4664 24.7951C4.46576 24.8174 4.4664 24.8621 4.4664 24.8838V25.5929C4.46576 25.6407 4.48361 25.686 4.51739 25.7205C4.58431 25.7728 4.65633 25.7876 4.75002 25.7876H10.1311H16.4931C17.8035 25.7876 19.089 25.7818 20.3987 25.7876C20.7843 25.7894 21.1967 25.7728 21.5791 25.7205C21.834 25.6854 22.0851 25.6241 22.3305 25.5475C22.6301 25.4448 22.9181 25.312 23.1916 25.1525C23.6135 24.9157 23.9965 24.6139 24.326 24.259C24.9576 23.5774 25.3783 22.7286 25.4758 21.7981C25.5121 21.4542 25.5083 21.1044 25.4599 20.7617Z" fill="#573BA3"/>
</svg>
