<svg width="102" height="35" viewBox="0 0 102 35" fill="none" xmlns="http://www.w3.org/2000/svg">
<path d="M41.03 18.91C41.03 19.84 41.03 20.78 41.03 21.71C41.03 21.78 41.01 21.86 41.09 21.9C41.18 21.94 41.25 21.89 41.31 21.83C41.93 21.14 42.62 20.5 43.28 19.84C43.43 19.69 43.4 19.58 43.25 19.46C43.13 19.37 43.02 19.26 42.91 19.15C42.86 19.11 42.82 19.06 42.85 18.99C42.88 18.92 42.95 18.93 43.01 18.93C43.78 18.97 44.55 18.96 45.32 18.93C45.38 18.93 45.46 18.91 45.48 18.98C45.52 19.09 45.42 19.14 45.36 19.2C44.56 19.98 43.77 20.77 42.96 21.54C42.79 21.7 42.79 21.8 42.96 21.97C43.87 22.87 44.78 23.79 45.68 24.69C45.84 24.85 45.93 24.91 46.07 24.63C46.25 24.28 46.54 23.98 46.78 23.67C46.87 23.55 46.97 23.58 47.05 23.69C47.28 23.98 47.5 24.27 47.74 24.56C48.12 25.02 48.57 25.05 49.03 24.67C49.19 24.54 49.32 24.38 49.41 24.19C49.58 23.82 49.52 23.56 49.15 23.36C48.55 23.03 47.94 22.72 47.32 22.42C46.62 22.09 46.12 21.63 46.13 20.79C46.14 19.46 47.23 18.49 48.57 18.62C48.96 18.66 49.33 18.8 49.7 18.91C50 18.99 50.29 19.09 50.58 19.17C50.74 19.22 50.83 19.28 50.7 19.45C50.48 19.73 50.26 20.02 50.06 20.31C49.94 20.48 49.85 20.48 49.73 20.32C49.53 20.06 49.33 19.8 49.12 19.55C48.88 19.26 48.59 19.19 48.18 19.33C47.92 19.42 47.6 19.81 47.58 20.06C47.56 20.32 47.75 20.46 47.93 20.57C48.31 20.81 48.71 21.03 49.11 21.24C49.45 21.42 49.77 21.61 50.1 21.81C51.23 22.48 51.01 24.22 50.25 24.87C49.52 25.51 48.7 25.63 47.8 25.39C47.32 25.26 46.87 25.08 46.4 24.93C46.25 24.88 46.04 24.75 46.07 25.09C46.08 25.2 45.97 25.2 45.88 25.2C45.12 25.2 44.36 25.2 43.6 25.2C43.42 25.2 43.31 25.12 43.35 24.94C43.45 24.51 43.17 24.27 42.9 24.03C42.37 23.53 41.86 23.01 41.35 22.49C41.28 22.42 41.22 22.34 41.12 22.37C41 22.41 41.04 22.52 41.04 22.61C41.05 23.03 41.08 23.45 41.05 23.87C41.01 24.27 41.17 24.54 41.46 24.77C41.53 24.83 41.61 24.88 41.68 24.94C41.75 25 41.86 25.05 41.8 25.16C41.76 25.25 41.65 25.21 41.57 25.2C40.61 25.17 39.66 25.17 38.7 25.2C38.62 25.2 38.52 25.25 38.47 25.16C38.41 25.05 38.52 24.99 38.59 24.94C39.14 24.62 39.26 24.14 39.25 23.52C39.21 21.61 39.24 19.7 39.25 17.79C39.25 17.63 39.2 17.51 39.08 17.41C38.9 17.24 38.72 17.07 38.54 16.9C38.49 16.85 38.43 16.8 38.44 16.72C38.46 16.63 38.54 16.64 38.61 16.62C39.31 16.38 40.01 16.14 40.7 15.89C41 15.78 41.04 15.8 41.04 16.1C41.04 17.02 41.04 17.95 41.04 18.87C41.05 18.91 41.04 18.91 41.03 18.91Z" fill="#004890"/>
<path d="M18.04 13.35C17.52 13.35 16.99 13.35 16.47 13.35C16.4 13.35 16.32 13.37 16.28 13.3C16.23 13.21 16.3 13.14 16.36 13.09C16.4 13.05 16.46 13.02 16.51 12.98C16.87 12.66 17.14 12.35 17.12 11.79C17.08 10.04 17.1 8.28 17.1 6.53C17.1 6.42 17.05 6.3 17.08 6.19C17.25 5.58 16.88 5.21 16.48 4.86C16.46 4.84 16.43 4.82 16.41 4.8C16.35 4.74 16.24 4.68 16.3 4.57C16.34 4.48 16.45 4.52 16.52 4.52C17.41 4.52 18.31 4.52 19.2 4.52C19.33 4.52 19.47 4.52 19.6 4.52C19.67 4.52 19.75 4.5 19.79 4.58C19.83 4.67 19.76 4.74 19.71 4.79C19.53 4.96 19.35 5.13 19.17 5.29C19.01 5.43 18.95 5.59 18.95 5.8C18.96 6.47 18.96 7.13 18.95 7.8C18.95 8.06 19.03 8.14 19.29 8.13C20.01 8.11 20.73 8.1 21.45 8.11C21.7 8.11 21.79 8.03 21.77 7.79C21.73 7.12 21.74 6.46 21.77 5.79C21.79 5.36 21.46 5.17 21.22 4.91C21.12 4.8 20.89 4.75 20.95 4.58C21.01 4.42 21.23 4.52 21.37 4.52C22.33 4.51 23.28 4.51 24.24 4.51C24.33 4.51 24.44 4.46 24.48 4.58C24.51 4.68 24.42 4.76 24.35 4.8C23.74 5.19 23.6 5.74 23.62 6.45C23.67 8.34 23.63 10.23 23.62 12.12C23.62 12.27 23.66 12.4 23.77 12.51C23.97 12.7 24.15 12.91 24.39 13.06C24.46 13.1 24.52 13.17 24.49 13.27C24.46 13.37 24.37 13.36 24.29 13.36C23.24 13.32 22.19 13.33 21.15 13.35C21.06 13.35 20.95 13.39 20.92 13.27C20.89 13.17 20.97 13.1 21.05 13.04C21.1 13.01 21.16 12.98 21.2 12.94C21.55 12.65 21.81 12.36 21.77 11.83C21.71 11 21.77 10.17 21.78 9.34C21.78 9.13 21.69 9.05 21.48 9.05C20.74 9.06 20 9.06 19.26 9.05C19.04 9.05 18.95 9.12 18.95 9.35C18.96 10.27 18.96 11.2 18.95 12.12C18.95 12.26 18.99 12.37 19.09 12.48C19.28 12.69 19.49 12.87 19.7 13.05C19.77 13.11 19.85 13.18 19.8 13.28C19.76 13.37 19.66 13.34 19.58 13.34C19.07 13.35 18.56 13.35 18.04 13.35Z" fill="#004890"/>
<path d="M18.47 25.23C17.84 25.23 17.22 25.23 16.59 25.23C16.52 25.23 16.44 25.26 16.4 25.17C16.37 25.09 16.44 25.04 16.49 24.99C16.57 24.92 16.65 24.86 16.73 24.8C17.08 24.49 17.24 24.13 17.23 23.63C17.19 21.64 17.22 19.65 17.22 17.66C17.22 17.24 16.82 17.09 16.62 16.8C16.59 16.75 16.52 16.73 16.47 16.69C16.42 16.65 16.37 16.6 16.39 16.53C16.42 16.43 16.5 16.46 16.57 16.46C17.61 16.47 18.65 16.46 19.68 16.49C20.44 16.51 21.19 16.58 21.86 17.03C23.1 17.86 23.16 19.68 21.7 20.43C21.65 20.45 21.61 20.48 21.56 20.5C21.48 20.54 21.37 20.57 21.37 20.68C21.37 20.81 21.51 20.81 21.6 20.85C22.43 21.15 22.99 21.73 23.2 22.59C23.44 23.57 22.8 24.61 21.84 24.91C21.16 25.13 20.47 25.24 19.75 25.22C19.32 25.21 18.89 25.22 18.46 25.22C18.47 25.22 18.47 25.23 18.47 25.23ZM18.99 22.78C19 23.2 19 23.62 18.99 24.04C18.98 24.28 19.08 24.38 19.32 24.37C19.58 24.36 19.83 24.38 20.09 24.36C20.64 24.32 21.07 24.08 21.3 23.55C21.73 22.55 20.86 20.98 19.71 21.22C19.58 21.25 19.44 21.22 19.31 21.22C19.08 21.21 18.98 21.31 18.98 21.55C19 21.96 18.99 22.37 18.99 22.78ZM18.99 18.82C18.99 19.23 18.99 19.64 18.99 20.05C18.99 20.18 18.99 20.34 19.14 20.34C19.59 20.35 20.06 20.46 20.46 20.12C20.91 19.73 21.06 18.89 20.83 18.18C20.66 17.64 20.28 17.42 19.76 17.36C19.6 17.34 19.43 17.36 19.27 17.35C19.06 17.35 18.98 17.46 18.99 17.66C18.99 18.04 18.99 18.43 18.99 18.82Z" fill="#004890"/>
<path d="M39.14 8.2C39.14 9.52 39.15 10.85 39.14 12.17C39.14 12.57 39.44 12.73 39.66 12.95C39.72 13.01 39.8 13.04 39.86 13.1C39.91 13.15 39.96 13.21 39.92 13.29C39.89 13.35 39.82 13.36 39.76 13.36C39.01 13.35 38.26 13.35 37.51 13.34C37.29 13.34 37.26 13.21 37.28 13.03C37.29 12.95 37.32 12.85 37.23 12.81C37.12 12.75 37.06 12.85 37 12.91C36.65 13.2 36.3 13.49 35.84 13.58C34.85 13.76 34.11 13.28 33.62 12.52C32.77 11.21 32.64 9.8 33.32 8.34C33.61 7.72 34.03 7.25 34.61 6.95C35.43 6.52 36.2 6.71 36.88 7.31C36.98 7.4 37.08 7.59 37.22 7.52C37.38 7.44 37.25 7.27 37.25 7.13C37.25 6.74 37.24 6.35 37.28 5.96C37.3 5.73 37.24 5.56 37.08 5.42C36.91 5.26 36.74 5.1 36.57 4.93C36.46 4.82 36.45 4.71 36.63 4.66C37.37 4.47 38.09 4.19 38.82 3.96C39.13 3.86 39.16 3.89 39.16 4.21C39.14 5.53 39.15 6.87 39.14 8.2ZM37.26 10.18C37.26 9.98 37.26 9.79 37.26 9.6C37.26 9.4 37.26 9.21 37.26 9.01C37.27 8.46 36.98 8.02 36.47 7.83C35.83 7.59 35.44 7.79 35.26 8.44C35.03 9.26 35.15 10.09 35.12 10.92C35.11 11.27 35.18 11.61 35.27 11.95C35.36 12.28 35.55 12.53 35.9 12.59C36.57 12.7 37.34 11.98 37.27 11.41C37.22 11.01 37.26 10.59 37.26 10.18Z" fill="#004890"/>
<path d="M58.38 10.82C58.38 10.09 58.38 9.36 58.38 8.63C58.38 8.09 57.93 7.8 57.44 8.02C56.94 8.25 56.61 8.68 56.25 9.07C56.19 9.14 56.18 9.24 56.18 9.33C56.22 10.29 56.22 11.26 56.18 12.22C56.17 12.38 56.26 12.49 56.36 12.59C56.53 12.75 56.71 12.91 56.88 13.07C56.94 13.13 57 13.2 56.95 13.29C56.91 13.37 56.83 13.36 56.76 13.35C55.75 13.33 54.75 13.32 53.74 13.36C53.67 13.36 53.59 13.37 53.56 13.29C53.53 13.22 53.57 13.15 53.62 13.1C53.63 13.09 53.63 13.08 53.64 13.08C54.31 12.71 54.37 12.11 54.33 11.43C54.29 10.6 54.32 9.77 54.33 8.94C54.33 8.76 54.28 8.63 54.14 8.51C53.98 8.37 53.82 8.22 53.67 8.07C53.49 7.89 53.51 7.79 53.75 7.71C54.34 7.51 54.94 7.33 55.53 7.13C55.67 7.09 55.79 7.01 55.93 6.96C56.1 6.9 56.23 6.95 56.2 7.16C56.18 7.34 56.22 7.53 56.17 7.71C56.15 7.8 56.1 7.93 56.22 7.98C56.34 8.03 56.41 7.92 56.47 7.84C56.75 7.49 57.1 7.23 57.49 7.01C58.52 6.43 59.68 6.82 60.15 7.91C60.23 8.09 60.24 8.27 60.24 8.45C60.24 9.7 60.23 10.96 60.23 12.21C60.23 12.59 60.57 12.74 60.78 12.98C60.82 13.03 60.88 13.05 60.93 13.09C60.99 13.15 61.05 13.21 61.01 13.3C60.98 13.38 60.89 13.37 60.82 13.37C60.11 13.36 59.4 13.35 58.69 13.36C58.43 13.36 58.35 13.27 58.36 13.02C58.38 12.27 58.38 11.55 58.38 10.82Z" fill="#004890"/>
<path d="M31.49 9.69C31.49 10.54 31.48 11.39 31.5 12.25C31.51 12.59 31.83 12.72 32.03 12.94C32.13 13.05 32.36 13.08 32.3 13.27C32.23 13.48 32.03 13.33 31.89 13.34C31.26 13.35 30.64 13.33 30.01 13.35C29.7 13.36 29.6 13.23 29.62 12.95C29.63 12.87 29.64 12.79 29.64 12.7C29.64 12.6 29.73 12.45 29.58 12.4C29.46 12.36 29.4 12.5 29.32 12.58C28.85 13.07 28.32 13.47 27.62 13.53C26.69 13.6 25.84 12.83 25.83 11.9C25.83 10.91 25.83 9.93 25.84 8.94C25.84 8.75 25.79 8.6 25.65 8.48C25.48 8.33 25.31 8.18 25.15 8.02C25 7.89 25.01 7.78 25.21 7.71C25.97 7.46 26.74 7.25 27.47 6.93C27.69 6.84 27.73 6.98 27.72 7.17C27.71 8.5 27.71 9.84 27.7 11.17C27.7 11.38 27.69 11.58 27.71 11.79C27.73 12.2 28.13 12.42 28.49 12.22C28.64 12.14 28.8 12.05 28.93 11.94C29.39 11.57 29.74 11.16 29.64 10.48C29.57 10.03 29.61 9.56 29.63 9.1C29.65 8.79 29.55 8.56 29.32 8.37C29.2 8.27 29.09 8.16 28.98 8.06C28.9 7.99 28.8 7.94 28.83 7.82C28.85 7.7 28.97 7.71 29.05 7.68C29.78 7.43 30.53 7.26 31.23 6.95C31.4 6.87 31.51 6.93 31.51 7.13C31.51 7.98 31.51 8.83 31.51 9.68C31.51 9.69 31.5 9.69 31.49 9.69Z" fill="#004890"/>
<path d="M45.98 10.15C45.81 8.31 47.71 6.69 49.42 6.73C51.24 6.77 52.85 8.35 52.85 10.15C52.85 12 51.25 13.59 49.39 13.6C47.66 13.62 45.82 12.03 45.98 10.15ZM50.61 10.17C50.61 9.87 50.63 9.57 50.61 9.28C50.58 8.84 50.48 8.41 50.25 8.02C49.82 7.3 49.02 7.27 48.56 7.97C48.37 8.26 48.27 8.57 48.22 8.91C48.12 9.56 48.12 10.22 48.16 10.87C48.19 11.37 48.26 11.86 48.53 12.31C48.97 13.04 49.85 13.02 50.27 12.25C50.63 11.6 50.61 10.88 50.61 10.17Z" fill="#004890"/>
<path d="M23.88 22.06C23.89 20.22 25.45 18.66 27.3 18.69C29.1 18.72 30.68 20.1 30.67 22.09C30.66 24.05 29.1 25.48 27.25 25.47C25.41 25.47 23.88 23.92 23.88 22.06ZM28.57 22.1C28.54 21.62 28.53 21.2 28.49 20.78C28.44 20.29 28.24 19.87 27.85 19.56C27.41 19.21 26.81 19.31 26.5 19.77C26.3 20.06 26.16 20.38 26.1 20.73C25.96 21.57 25.96 22.41 26.07 23.25C26.12 23.67 26.26 24.07 26.51 24.42C26.83 24.86 27.41 24.95 27.84 24.62C28.2 24.33 28.42 23.95 28.47 23.49C28.53 23.01 28.54 22.52 28.57 22.1Z" fill="#004890"/>
<path d="M31.47 22.07C31.42 20.26 33.06 18.67 34.9 18.69C36.65 18.71 38.26 20.17 38.26 22.08C38.26 24.01 36.6 25.55 34.73 25.48C32.97 25.42 31.4 23.85 31.47 22.07ZM33.58 22.08C33.57 22.48 33.6 22.88 33.65 23.28C33.72 23.77 33.88 24.22 34.25 24.56C34.6 24.88 35.06 24.9 35.43 24.6C35.77 24.32 35.96 23.95 36.05 23.53C36.21 22.75 36.21 21.96 36.13 21.17C36.09 20.76 36.02 20.35 35.8 19.99C35.6 19.66 35.36 19.38 34.92 19.35C34.42 19.32 34.15 19.62 33.93 20.01C33.57 20.66 33.59 21.38 33.58 22.08Z" fill="#004890"/>
<path d="M69.29 21.99C68.72 21.99 68.16 22 67.59 21.99C67.35 21.99 67.23 22.06 67.24 22.33C67.26 22.75 67.26 23.17 67.34 23.59C67.46 24.18 67.78 24.52 68.38 24.61C69.19 24.73 69.94 24.59 70.5 23.92C70.75 23.62 70.84 23.98 70.98 24.05C71.14 24.13 71.11 24.25 70.99 24.37C69.88 25.54 67.84 25.78 66.52 24.87C65.4 24.1 64.89 22.6 65.21 21.27C65.53 19.96 66.29 19.05 67.63 18.76C69.37 18.38 71.02 19.63 71.27 21.44C71.36 22.09 71.29 22.02 70.76 22C70.28 21.99 69.78 22 69.29 21.99ZM68.24 21.27C68.41 21.26 68.59 21.26 68.76 21.27C69.26 21.28 69.49 20.97 69.33 20.48C69.21 20.12 68.99 19.83 68.68 19.61C68.29 19.33 67.93 19.37 67.63 19.73C67.31 20.11 67.29 20.6 67.26 21.06C67.25 21.23 67.39 21.27 67.54 21.27C67.77 21.27 68 21.27 68.24 21.27Z" fill="#004890"/>
<path d="M55.53 22C54.96 22 54.4 22.01 53.83 22C53.57 21.99 53.48 22.09 53.49 22.34C53.51 22.79 53.5 23.24 53.62 23.69C53.76 24.19 54.07 24.52 54.59 24.6C55.43 24.73 56.19 24.59 56.77 23.91C56.91 23.75 57.01 23.81 57.12 23.94C57.22 24.07 57.48 24.14 57.25 24.37C56.95 24.67 56.63 24.94 56.23 25.1C54.61 25.75 52.96 25.49 52.01 24.09C51.19 22.88 51.14 21.6 51.85 20.31C52.56 19.01 53.94 18.41 55.35 18.84C56.62 19.23 57.29 20.15 57.51 21.43C57.52 21.51 57.53 21.59 57.55 21.67C57.61 21.92 57.52 22.03 57.25 22.03C56.67 22.02 56.1 22.03 55.52 22.03C55.53 22.01 55.53 22 55.53 22ZM54.48 21.27C54.65 21.27 54.83 21.26 55 21.27C55.52 21.28 55.75 20.96 55.57 20.45C55.44 20.09 55.22 19.8 54.91 19.58C54.52 19.3 54.07 19.39 53.83 19.81C53.62 20.17 53.52 20.57 53.5 20.98C53.49 21.17 53.58 21.27 53.77 21.27C54 21.27 54.24 21.27 54.48 21.27Z" fill="#004890"/>
<path d="M42.91 13.65C42.3 13.67 41.72 13.38 41.12 13.2C40.92 13.14 40.74 13.06 40.53 13.02C40.33 12.99 40.25 12.9 40.4 12.71C40.66 12.38 40.92 12.05 41.18 11.72C41.29 11.58 41.38 11.66 41.45 11.75C41.67 12.03 41.9 12.31 42.11 12.6C42.35 12.94 42.75 13.07 43.13 12.91C43.34 12.82 43.52 12.68 43.65 12.49C44 12.02 43.93 11.69 43.42 11.42C42.79 11.09 42.16 10.74 41.51 10.44C40.18 9.85 40.32 8.31 40.92 7.57C41.61 6.72 42.6 6.47 43.64 6.83C44.08 6.98 44.52 7.11 44.96 7.24C45.18 7.3 45.22 7.41 45.08 7.59C44.86 7.89 44.66 8.19 44.44 8.49C44.33 8.65 44.22 8.64 44.11 8.47C43.93 8.21 43.72 7.97 43.54 7.7C43.28 7.33 42.92 7.38 42.57 7.46C42.25 7.54 42.08 7.8 42.04 8.11C41.99 8.44 42.25 8.6 42.49 8.74C43.11 9.11 43.74 9.44 44.37 9.78C45.26 10.25 45.4 11.3 45.2 11.99C44.89 13.07 44.07 13.65 42.91 13.65Z" fill="#004890"/>
<path d="M79.76 25.53C79.26 25.55 78.75 25.32 78.22 25.15C77.96 25.07 77.71 24.94 77.43 24.92C77.24 24.91 77.2 24.8 77.31 24.65C77.55 24.33 77.8 24.02 78.05 23.71C78.16 23.57 78.25 23.61 78.35 23.73C78.59 24.04 78.83 24.34 79.08 24.64C79.35 24.98 79.79 25.04 80.15 24.8C80.3 24.7 80.43 24.59 80.54 24.45C80.93 23.96 80.87 23.6 80.32 23.31C79.66 22.96 79 22.6 78.32 22.28C77.07 21.7 77.28 20.07 77.9 19.4C78.56 18.68 79.38 18.48 80.31 18.73C80.82 18.87 81.33 19.03 81.84 19.18C82.02 19.23 82.08 19.32 81.95 19.49C81.74 19.77 81.53 20.05 81.33 20.33C81.2 20.52 81.11 20.49 80.98 20.32C80.79 20.05 80.58 19.8 80.37 19.54C80.14 19.26 79.83 19.2 79.42 19.34C79.16 19.43 78.84 19.83 78.84 20.08C78.84 20.32 79 20.46 79.17 20.57C79.55 20.81 79.94 21.04 80.35 21.24C80.75 21.44 81.12 21.66 81.49 21.91C81.83 22.14 82 22.47 82.06 22.88C82.32 24.43 81.37 25.55 79.76 25.53Z" fill="#004890"/>
<path d="M60.42 20.14C60.42 21.46 60.42 22.79 60.42 24.11C60.42 24.26 60.46 24.39 60.56 24.5C60.69 24.66 60.83 24.81 61 24.93C61.09 24.99 61.23 25.04 61.18 25.18C61.13 25.3 61 25.23 60.9 25.23C59.97 25.23 59.03 25.23 58.1 25.23C58.01 25.23 57.9 25.29 57.85 25.18C57.8 25.07 57.92 25.02 57.98 24.97C58.01 24.94 58.04 24.92 58.08 24.9C58.47 24.61 58.66 24.28 58.65 23.74C58.61 21.78 58.64 19.82 58.64 17.86C58.64 17.68 58.59 17.55 58.45 17.43C58.26 17.27 58.09 17.09 57.91 16.92C57.8 16.81 57.76 16.71 57.96 16.66C58.7 16.47 59.4 16.18 60.11 15.92C60.39 15.82 60.43 15.85 60.42 16.15C60.42 17.48 60.42 18.82 60.42 20.15C60.43 20.14 60.42 20.14 60.42 20.14Z" fill="#004890"/>
<path d="M64.31 20.11C64.31 21.44 64.31 22.78 64.31 24.11C64.31 24.47 64.59 24.63 64.8 24.85C64.9 24.95 65.12 25.01 65.07 25.15C65 25.33 64.8 25.2 64.66 25.2C63.77 25.21 62.87 25.21 61.98 25.22C61.9 25.22 61.8 25.26 61.76 25.17C61.7 25.06 61.81 25 61.88 24.95C62.41 24.62 62.58 24.17 62.56 23.53C62.51 21.63 62.55 19.73 62.55 17.83C62.55 17.65 62.5 17.52 62.37 17.4C62.18 17.24 62.01 17.06 61.83 16.89C61.72 16.79 61.67 16.68 61.87 16.63C62.62 16.44 63.33 16.14 64.05 15.87C64.28 15.78 64.34 15.85 64.34 16.08C64.33 17.41 64.34 18.75 64.34 20.08C64.32 20.11 64.31 20.11 64.31 20.11Z" fill="#004890"/>
<path d="M74.23 22.79C74.23 23.23 74.25 23.67 74.22 24.11C74.2 24.46 74.46 24.61 74.65 24.81C74.76 24.93 75.01 24.99 74.96 25.15C74.9 25.33 74.67 25.2 74.52 25.2C73.64 25.21 72.75 25.22 71.87 25.22C71.78 25.22 71.67 25.28 71.63 25.15C71.6 25.06 71.7 25.01 71.76 24.96C71.82 24.92 71.88 24.87 71.93 24.83C72.25 24.59 72.42 24.31 72.4 23.87C72.36 22.86 72.39 21.84 72.4 20.82C72.4 20.62 72.34 20.46 72.18 20.34C72.03 20.22 71.88 20.09 71.74 19.96C71.56 19.79 71.58 19.71 71.83 19.63C72.54 19.4 73.27 19.21 73.96 18.91C74.18 18.81 74.27 18.89 74.25 19.12C74.24 19.29 74.23 19.47 74.21 19.64C74.2 19.72 74.18 19.82 74.27 19.86C74.37 19.91 74.44 19.83 74.5 19.75C74.66 19.52 74.88 19.35 75.11 19.19C75.59 18.84 76.12 18.76 76.69 18.82C76.9 18.85 76.98 18.95 76.97 19.17C76.96 19.79 76.97 20.4 76.97 21.02C76.97 21.1 77.01 21.2 76.9 21.23C76.81 21.26 76.75 21.19 76.69 21.13C76.36 20.73 75.98 20.39 75.62 20.03C75.5 19.91 75.38 19.84 75.27 20C75.02 20.35 74.68 20.62 74.4 20.95C74.29 21.08 74.22 21.21 74.23 21.39C74.23 21.87 74.23 22.33 74.23 22.79Z" fill="#004890"/>
<path d="M81.9 29.28C81.9 29.57 81.9 29.85 81.9 30.14C81.9 30.37 81.98 30.51 82.22 30.55C82.34 30.57 82.45 30.61 82.43 30.76C82.41 30.9 82.29 30.92 82.17 30.92C81.82 30.92 81.47 30.91 81.12 30.92C80.86 30.92 80.81 30.79 80.85 30.56C80.96 29.89 80.97 29.21 80.9 28.54C80.87 28.27 80.77 28.04 80.48 27.95C80.19 27.87 79.96 27.98 79.77 28.2C79.69 28.29 79.66 28.39 79.66 28.51C79.66 29.07 79.67 29.64 79.66 30.2C79.66 30.42 79.77 30.52 79.97 30.54C80.1 30.55 80.22 30.58 80.21 30.75C80.2 30.93 80.06 30.92 79.94 30.91C79.43 30.89 78.91 30.88 78.4 30.92C78.3 30.93 78.21 30.9 78.19 30.79C78.17 30.67 78.21 30.57 78.33 30.55C78.63 30.5 78.66 30.29 78.66 30.05C78.66 29.55 78.69 29.04 78.64 28.54C78.6 28.11 78.35 27.87 78 27.92C77.63 27.97 77.4 28.28 77.42 28.68C77.44 29.15 77.44 29.62 77.43 30.1C77.43 30.33 77.45 30.51 77.73 30.54C77.83 30.55 77.93 30.62 77.92 30.75C77.9 30.89 77.79 30.92 77.67 30.91C77.17 30.89 76.66 30.87 76.16 30.92C76.04 30.93 75.93 30.9 75.91 30.75C75.89 30.62 75.98 30.56 76.09 30.55C76.38 30.52 76.43 30.34 76.42 30.1C76.41 29.48 76.41 28.87 76.41 28.25C76.41 28.06 76.35 27.93 76.13 27.92C76.02 27.92 75.91 27.88 75.91 27.75C75.91 27.62 76.02 27.59 76.13 27.57C76.49 27.52 76.84 27.47 77.17 27.32C77.38 27.23 77.45 27.35 77.42 27.55C77.41 27.62 77.37 27.7 77.47 27.74C77.53 27.77 77.59 27.73 77.64 27.69C77.77 27.6 77.89 27.52 78.02 27.43C78.5 27.12 79.1 27.2 79.45 27.66C79.59 27.84 79.69 27.85 79.85 27.71C79.97 27.61 80.1 27.53 80.21 27.43C80.75 26.99 81.87 27.42 81.9 28.16C81.93 28.54 81.89 28.91 81.9 29.28Z" fill="#004890"/>
<path d="M71.72 29.09C71.7 27.42 73.22 27.07 74.28 27.36C74.89 27.53 75.28 27.88 75.35 28.54C75.46 29.54 75.3 30.36 74.48 30.78C73.38 31.33 71.66 30.93 71.72 29.09ZM74.32 29.24C74.3 28.97 74.29 28.65 74.25 28.34C74.2 27.94 73.92 27.68 73.57 27.66C73.24 27.64 72.95 27.84 72.88 28.23C72.75 28.89 72.75 29.56 73.02 30.19C73.14 30.46 73.45 30.62 73.73 30.58C74.03 30.53 74.25 30.31 74.28 30C74.3 29.76 74.3 29.53 74.32 29.24Z" fill="#004890"/>
<path d="M69.23 28.9C69.24 29.08 69.25 29.27 69.3 29.45C69.51 30.25 70.05 30.58 70.85 30.37C70.95 30.35 71.06 30.28 71.13 30.39C71.2 30.51 71.1 30.61 71.02 30.68C70.8 30.88 70.52 30.94 70.23 30.98C69.74 31.05 69.3 30.94 68.88 30.69C68.22 30.29 68.16 29.25 68.3 28.69C68.41 28.22 68.7 27.92 69.11 27.71C69.26 27.64 69.4 27.55 69.54 27.47C70.02 27.17 70.53 27.25 71.03 27.41C71.18 27.46 71.2 27.58 71.16 27.71C71.1 27.93 71.05 28.15 71.05 28.37C71.05 28.5 71 28.62 70.84 28.62C70.68 28.62 70.64 28.5 70.63 28.37C70.58 28.03 70.41 27.87 70.08 27.83C69.74 27.8 69.44 27.96 69.34 28.26C69.25 28.46 69.23 28.68 69.23 28.9Z" fill="#004890"/>
<path d="M67.69 30.37C67.7 30.66 67.38 31 67.09 31.01C66.78 31.01 66.46 30.72 66.45 30.42C66.43 30.09 66.73 29.78 67.06 29.77C67.35 29.75 67.68 30.06 67.69 30.37Z" fill="#004890"/>
</svg>
