<svg width="102" height="35" viewBox="0 0 102 35" fill="none" xmlns="http://www.w3.org/2000/svg">
<path d="M14.65 8.34C20.01 8.34 24.34 12.68 24.34 18.06C24.34 23.38 20 27.75 14.71 27.75C9.14999 27.75 4.91999 23.47 4.90999 17.83C4.89999 12.67 9.34999 8.34 14.65 8.34ZM21.09 18.04C21.09 14.49 18.18 11.58 14.62 11.58C11.07 11.58 8.13999 14.5 8.13999 18.04C8.13999 21.6 11.06 24.52 14.6 24.52C18.19 24.51 21.09 21.62 21.09 18.04ZM71.1 23.07C70.98 23.07 70.91 23.14 70.85 23.21C69.55 24.62 67.93 24.86 66.17 24.45C63.6 23.86 61.95 21.99 61.57 19.28C61.3 17.34 61.57 15.48 62.72 13.85C64.03 12 65.91 11.32 68.11 11.46C69.88 11.58 71.32 12.32 72.29 13.85C72.62 14.36 72.8 14.94 72.92 15.53C72.97 15.77 72.93 15.9 72.64 15.89C71.95 15.88 71.25 15.88 70.56 15.89C70.38 15.89 70.29 15.83 70.23 15.65C69.86 14.52 69.08 13.87 67.88 13.79C66.55 13.71 65.51 14.2 64.84 15.4C63.89 17.11 64.09 19.88 65.28 21.25C66.28 22.41 68.46 22.6 69.65 21.63C70.19 21.19 70.45 20.59 70.58 19.92C70.63 19.66 70.53 19.56 70.27 19.57C69.59 19.58 68.91 19.56 68.24 19.57C67.96 19.58 67.83 19.51 67.84 19.2C67.86 18.73 67.85 18.27 67.83 17.8C67.82 17.57 67.91 17.48 68.14 17.48H72.84C73.07 17.48 73.16 17.56 73.16 17.8C73.15 19.86 73.15 21.92 73.16 23.98C73.16 24.22 73.07 24.3 72.84 24.29C72.45 24.28 72.06 24.28 71.67 24.29C71.44 24.3 71.35 24.2 71.31 23.99C71.26 23.7 71.24 23.37 71.1 23.07ZM58.32 18.41C59.56 18.94 59.88 20.02 59.98 21.22C60.06 22.19 60.01 23.18 60.4 24.11C60.48 24.3 60.36 24.32 60.23 24.32C59.46 24.32 58.69 24.31 57.93 24.32C57.7 24.32 57.67 24.15 57.62 24C57.44 23.39 57.43 22.75 57.38 22.12C57.34 21.64 57.28 21.16 57.16 20.7C56.96 19.96 56.48 19.54 55.73 19.46C54.74 19.37 53.74 19.43 52.75 19.42C52.45 19.42 52.46 19.61 52.46 19.81C52.46 21.15 52.44 22.49 52.47 23.83C52.48 24.24 52.35 24.34 51.96 24.32C51.36 24.29 50.76 24.29 50.15 24.32C49.78 24.34 49.66 24.23 49.67 23.85C49.69 21.07 49.68 18.28 49.68 15.5C49.68 14.39 49.69 13.27 49.67 12.16C49.66 11.83 49.76 11.73 50.1 11.74C52.27 11.76 54.44 11.72 56.6 11.76C59.66 11.81 60.84 14.72 59.75 16.98C59.52 17.45 59.16 17.81 58.72 18.09C58.59 18.18 58.42 18.22 58.32 18.41ZM54.29 13.92V13.9H52.8C52.59 13.9 52.46 13.94 52.46 14.19C52.47 15.18 52.46 16.17 52.46 17.16C52.46 17.35 52.54 17.43 52.73 17.43C53.81 17.41 54.9 17.51 55.97 17.37C56.96 17.24 57.41 16.61 57.36 15.51C57.32 14.54 56.79 13.98 55.82 13.92C55.31 13.9 54.8 13.92 54.29 13.92ZM75.03 18.02C75.03 16.08 75.04 14.14 75.02 12.19C75.02 11.84 75.11 11.73 75.47 11.73C78.32 11.75 81.16 11.75 84.01 11.73C84.36 11.73 84.46 11.83 84.45 12.16C84.43 12.61 84.41 13.07 84.45 13.51C84.49 13.97 84.34 14.1 83.88 14.09C82.04 14.06 80.2 14.09 78.37 14.06C77.95 14.05 77.78 14.16 77.8 14.6C77.83 15.17 77.82 15.74 77.8 16.32C77.79 16.64 77.9 16.73 78.21 16.73C79.93 16.72 81.64 16.73 83.36 16.71C83.75 16.71 83.91 16.79 83.87 17.2C83.83 17.6 83.84 18.01 83.87 18.42C83.9 18.79 83.79 18.91 83.4 18.91C81.71 18.89 80.03 18.92 78.34 18.89C77.89 18.88 77.77 19.04 77.79 19.45C77.82 20.07 77.8 20.68 77.8 21.3C77.8 21.94 77.8 21.94 78.47 21.94C80.34 21.94 82.21 21.95 84.07 21.93C84.47 21.93 84.6 22.03 84.57 22.43C84.53 22.88 84.54 23.33 84.57 23.78C84.59 24.15 84.49 24.29 84.07 24.29C81.21 24.27 78.35 24.27 75.48 24.29C75.11 24.29 74.99 24.2 74.99 23.82C75.04 21.91 75.03 19.97 75.03 18.02ZM47.11 24.31H47.06C45.68 24.31 45.68 24.31 45.26 22.98C45.21 22.84 45.17 22.69 45.12 22.55C44.76 21.53 44.76 21.53 43.69 21.52C42.64 21.52 41.58 21.53 40.53 21.51C40.21 21.5 40.05 21.61 39.95 21.92C39.73 22.61 39.46 23.28 39.24 23.96C39.16 24.21 39.03 24.31 38.75 24.3C38.07 24.28 37.39 24.28 36.72 24.3C36.37 24.31 36.31 24.22 36.44 23.89C37.74 20.49 39.03 17.09 40.32 13.69C40.52 13.16 40.73 12.62 40.92 12.08C41.01 11.83 41.13 11.72 41.41 11.73C42.13 11.75 42.86 11.75 43.58 11.73C43.86 11.72 43.97 11.85 44.06 12.09C45.25 15.29 46.45 18.49 47.65 21.68C47.93 22.43 48.2 23.18 48.49 23.92C48.61 24.23 48.52 24.32 48.21 24.3C47.84 24.3 47.48 24.31 47.11 24.31ZM42.5 14.93C42.42 15.02 42.38 15.04 42.37 15.08C41.88 16.44 41.4 17.79 40.92 19.15C40.82 19.43 40.97 19.45 41.18 19.45C41.99 19.45 42.8 19.43 43.61 19.45C43.95 19.46 44.03 19.36 43.91 19.04C43.57 18.09 43.25 17.14 42.93 16.19C42.8 15.79 42.66 15.38 42.5 14.93ZM33.74 19.22C33.74 20.77 33.73 22.32 33.75 23.87C33.75 24.22 33.65 24.34 33.29 24.33C32.6436 24.305 31.9964 24.305 31.35 24.33C31.02 24.34 30.94 24.22 30.94 23.91C30.95 20.87 30.94 17.83 30.95 14.79C30.95 14.09 30.96 14.09 30.24 14.09C29.37 14.09 28.49 14.08 27.62 14.1C27.3 14.11 27.15 14.04 27.17 13.68C27.2 13.15 27.19 12.63 27.17 12.1C27.16 11.84 27.23 11.74 27.52 11.74C30.73 11.75 33.93 11.74 37.14 11.73C37.39 11.73 37.5 11.81 37.5 12.06C37.49 12.63 37.49 13.2 37.5 13.78C37.51 14.06 37.36 14.09 37.13 14.09C36.15 14.08 35.17 14.1 34.19 14.08C33.81 14.07 33.71 14.2 33.71 14.57C33.75 16.12 33.74 17.67 33.74 19.22ZM96.04 14.1C94.95 14.1 93.87 14.06 92.78 14.12C92.41 14.02 92.26 14.15 92.36 14.53C92.35 14.71 92.33 14.89 92.33 15.07C92.33 17.98 92.32 20.89 92.34 23.8C92.34 24.21 92.23 24.35 91.81 24.32C91.18 24.28 90.55 24.31 89.92 24.31C89.76 24.31 89.58 24.34 89.52 24.12V24.03C89.56 23.85 89.56 23.67 89.52 23.49C89.53 23.31 89.55 23.13 89.55 22.95V14.92C89.55 14.03 89.55 14.03 88.62 14.12C88.0478 14.07 87.4722 14.07 86.9 14.12C86.8577 14.1003 86.8116 14.09 86.765 14.09C86.7183 14.09 86.6723 14.1003 86.63 14.12C86.5133 14.08 86.3867 14.08 86.27 14.12C85.88 14.14 85.77 13.94 85.79 13.57C85.82 13.11 85.82 12.64 85.8 12.17C85.78 11.83 85.9 11.73 86.24 11.74C87.73 11.76 89.21 11.75 90.7 11.75H95.66C95.83 11.75 96.09 11.66 96.08 11.99C96.07 12.7 96.15 13.4 96.04 14.1ZM97.48 23.22C97.4 23.25 97.38 23.32 97.37 23.39C97.03 23.78 96.61 24.05 96.12 24.21C96 24.23 95.88 24.24 95.76 24.26C95.7177 24.2403 95.6716 24.23 95.625 24.23C95.5783 24.23 95.5323 24.2403 95.49 24.26C95.4 24.24 95.31 24.23 95.22 24.21C94.77 24.08 94.4 23.84 94.06 23.53V23.5L94.03 23.49C93.82 23.15 93.69 22.78 93.6 22.4C93.6 22.31 93.6 22.22 93.59 22.14C93.67 22.03 93.66 21.9 93.65 21.78C93.6758 21.7524 93.6933 21.718 93.7004 21.6808C93.7075 21.6436 93.7039 21.6052 93.69 21.57C94.03 20.89 94.57 20.46 95.31 20.27L95.75 20.24C96.08 20.34 96.41 20.43 96.74 20.53C97.68 21.23 97.89 22.14 97.48 23.22ZM95.66 23.78C96.51 23.79 97.16 23.15 97.17 22.27C97.18 21.38 96.53 20.69 95.67 20.68C94.84 20.68 94.16 21.36 94.15 22.21C94.14 23.1 94.78 23.77 95.66 23.78Z" fill="#CC152F"/>
<path d="M96.04 14.1C96.15 13.4 96.07 12.69 96.08 11.99C96.09 11.66 95.83 11.76 95.66 11.75C94.01 11.74 92.35 11.75 90.7 11.75C89.21 11.75 87.72 11.76 86.24 11.74C85.9 11.74 85.79 11.83 85.8 12.17C85.82 12.63 85.83 13.1 85.79 13.57C85.76 13.94 85.87 14.14 86.27 14.12C86.19 14.31 86.17 14.5 86.31 14.71C85.88 14.46 85.46 14.91 85.01 14.64C85.26 14.46 85.6 14.66 85.78 14.35C85.53 14.3 85.46 14.18 85.62 13.95C85.67 13.88 85.67 13.73 85.63 13.64C85.37 12.98 85.81 12.32 85.6 11.66C85.54 11.47 85.7 11.5 85.81 11.47C86.17 11.37 86.46 11.66 86.81 11.66C89.47 11.65 92.13 11.68 94.79 11.63C95.16 11.62 95.56 11.61 95.94 11.49C96.12 11.43 96.36 11.44 96.38 11.72C96.39 11.89 96.56 11.9 96.62 12.01C96.17 12.23 96.06 12.71 96.36 13.1C96.51 13.29 96.44 13.53 96.42 13.72C96.39 13.95 96.43 14.08 96.71 14.18C96.4 14.31 96.16 14.56 96.04 14.1ZM97.48 23.22C97.89 22.14 97.68 21.23 96.75 20.52C97.02 20.53 97.3 20.5 97.42 20.83C97.46 20.94 97.57 20.95 97.68 20.97C98.2 21.06 98.4 21.45 98.18 21.94C98.15 22.02 98.08 22.14 98.11 22.19C98.34 22.59 98.03 23.03 98.23 23.43C98.3 23.57 98.18 23.66 98.08 23.71C97.92 23.79 97.93 23.62 97.89 23.54C97.83 23.34 97.72 23.19 97.48 23.22ZM97.99 21.55C98 21.42 97.93 21.36 97.82 21.34C97.73 21.33 97.67 21.38 97.7 21.47C97.73 21.56 97.71 21.7 97.83 21.72C97.95 21.75 97.95 21.62 97.99 21.55ZM92.87 14.73C93.06 14.75 93.05 14.9 93.05 15.03V22.34C93.05 22.41 93.06 22.49 92.87 22.55V14.73Z" fill="#FBF9F9"/>
<path d="M88.62 14.12C89.55 14.03 89.55 14.03 89.55 14.92V22.95C89.55 23.13 89.53 23.31 89.52 23.49C89.37 23.34 89.44 23.15 89.44 22.97C89.44 20.32 89.43 17.66 89.45 15.01C89.45 14.72 89.37 14.53 89.13 14.38C89.07 14.34 89.01 14.28 88.93 14.34C88.49 14.74 88.67 14.27 88.62 14.12ZM94.06 23.53C94.4 23.84 94.77 24.09 95.22 24.21C95.06 24.37 94.85 24.32 94.67 24.29C94.4 24.25 94.15 24.05 93.86 24.28C93.77 24.35 93.64 24.2 93.59 24.1C93.49 23.94 93.66 23.96 93.74 23.92C93.9 23.84 94.04 23.73 94.06 23.53ZM95.32 20.26C94.58 20.45 94.05 20.89 93.7 21.56C93.7 21.53 93.68 21.48 93.69 21.47C94 21.26 93.03 21.07 93.68 20.86C93.94 20.78 94.01 20.41 94.38 20.46C94.53 20.48 94.71 20.3 94.88 20.2C95.04 20.13 95.19 20.1 95.32 20.26ZM96.12 24.22C96.61 24.06 97.03 23.79 97.37 23.4C97.55 23.8 97.28 24.28 96.85 24.31C96.6 24.32 96.36 24.3 96.12 24.22ZM96.75 20.52C96.42 20.42 96.09 20.33 95.76 20.23C95.78 20.06 95.93 19.9 95.75 19.73C95.7 19.68 95.66 19.59 95.76 19.55C95.8449 19.525 95.9351 19.525 96.02 19.55C96.11 19.57 96.12 19.66 96.1 19.73C95.93 20.17 96.15 20.21 96.51 20.16C96.79 20.12 96.75 20.34 96.75 20.52ZM93.61 22.4C93.71 22.78 93.83 23.15 94.04 23.49C93.83 23.44 93.73 23.62 93.53 23.77C93.48 23.27 93.6 22.84 93.61 22.4ZM92.36 14.53C92.26 14.15 92.41 14.02 92.78 14.12C92.57 14.36 92.7 14.55 92.87 14.73C92.66 14.77 92.54 14.59 92.36 14.53ZM93.57 20.55C93.49 20.27 93.46 20.1 93.56 19.93C93.59 19.89 93.67 19.91 93.71 19.97C93.84 20.18 93.74 20.33 93.57 20.55ZM97.65 20.17C97.79 20.16 97.83 20.23 97.84 20.33C97.84 20.47 97.76 20.51 97.64 20.51C97.55 20.51 97.43 20.52 97.44 20.4C97.44 20.27 97.56 20.21 97.65 20.17ZM86.63 14.12C86.72 14.08 86.81 14.08 86.9 14.12C86.87 14.24 86.86 14.42 86.69 14.4C86.6 14.38 86.65 14.22 86.63 14.12ZM92.96 23.05C93.08 23.21 93.08 23.33 92.96 23.49C92.85 23.32 92.85 23.21 92.96 23.05ZM93.66 21.78C93.67 21.91 93.68 22.03 93.6 22.14C93.47 21.99 93.43 21.86 93.66 21.78ZM95.49 24.26C95.58 24.22 95.67 24.22 95.76 24.26C95.67 24.45 95.58 24.45 95.49 24.26ZM96.55 19.82C96.58 19.83 96.61 19.84 96.62 19.85C96.63 19.87 96.6 19.9 96.59 19.92C96.5652 19.9138 96.5416 19.9037 96.52 19.89C96.52 19.88 96.54 19.85 96.55 19.82ZM89.52 24.04V24.13L89.49 24.07C89.49 24.06 89.51 24.04 89.52 24.04ZM21.09 18.04C21.09 21.62 18.19 24.52 14.59 24.52C11.05 24.52 8.14 21.6 8.13 18.04C8.13 14.51 11.06 11.58 14.61 11.58C18.18 11.58 21.09 14.48 21.09 18.04ZM14.63 14.72C14.1922 14.7155 13.7578 14.7978 13.352 14.962C12.9461 15.1263 12.5768 15.3693 12.2654 15.677C11.9539 15.9847 11.7065 16.3511 11.5374 16.755C11.3682 17.1588 11.2808 17.5922 11.28 18.03C11.2751 18.4676 11.3567 18.9018 11.5201 19.3077C11.6835 19.7137 11.9254 20.0833 12.232 20.3955C12.5386 20.7077 12.9039 20.9563 13.3068 21.1269C13.7098 21.2976 14.1424 21.387 14.58 21.39C16.46 21.41 17.96 19.9 17.95 18.01C17.95 16.19 16.47 14.72 14.63 14.72ZM54.29 13.92C54.8 13.92 55.31 13.89 55.82 13.93C56.79 13.99 57.32 14.55 57.36 15.52C57.41 16.62 56.96 17.25 55.97 17.38C54.9 17.52 53.81 17.41 52.73 17.44C52.54 17.44 52.46 17.36 52.46 17.17C52.46 16.18 52.47 15.19 52.46 14.2C52.46 13.95 52.59 13.91 52.8 13.91C53.3 13.92 53.79 13.91 54.29 13.91V13.92ZM42.5 14.93C42.65 15.38 42.79 15.78 42.93 16.19C43.26 17.14 43.57 18.1 43.91 19.04C44.03 19.36 43.95 19.46 43.61 19.45C42.8 19.43 41.99 19.44 41.18 19.45C40.97 19.45 40.82 19.43 40.92 19.15C41.41 17.79 41.89 16.44 42.37 15.08C42.39 15.05 42.43 15.02 42.5 14.93ZM95.66 23.78C94.79 23.77 94.14 23.1 94.15 22.21C94.16 21.36 94.84 20.68 95.67 20.68C96.52 20.68 97.18 21.38 97.17 22.27C97.16 23.15 96.51 23.8 95.66 23.78ZM95.59 21.24C94.88 21.24 94.88 21.24 94.88 21.96C94.88 22.28 94.87 22.59 94.88 22.91C94.88 23.07 94.84 23.27 95.09 23.28C95.36 23.3 95.37 23.08 95.35 22.91C95.31 22.57 95.52 22.54 95.76 22.57C95.92 22.59 95.95 22.75 95.98 22.88C96.03 23.14 96.14 23.4 96.44 23.27C96.72 23.16 96.5 22.9 96.45 22.73C96.37 22.47 96.23 22.28 96.47 21.98C96.64 21.77 96.51 21.46 96.2 21.32C96.01 21.22 95.8 21.25 95.59 21.24Z" fill="#FBF9F9"/>
<path d="M97.99 21.55C97.95 21.62 97.94 21.75 97.83 21.72C97.71 21.7 97.73 21.56 97.7 21.47C97.67 21.38 97.73 21.33 97.82 21.34C97.93 21.35 98 21.42 97.99 21.55Z" fill="#FEFEFE"/>
<path d="M14.63 14.72C16.46 14.73 17.95 16.19 17.95 18.01C17.96 19.9 16.46 21.41 14.58 21.39C13.6972 21.3808 12.8542 21.0219 12.2356 20.392C11.617 19.7622 11.2733 18.9128 11.28 18.03C11.31 16.17 12.78 14.71 14.63 14.72ZM95.59 21.24C95.8 21.25 96.01 21.22 96.21 21.31C96.51 21.45 96.65 21.76 96.48 21.97C96.24 22.27 96.38 22.46 96.46 22.72C96.51 22.88 96.73 23.14 96.45 23.26C96.14 23.38 96.04 23.12 95.99 22.87C95.96 22.74 95.93 22.58 95.77 22.56C95.53 22.53 95.32 22.56 95.36 22.9C95.38 23.07 95.37 23.29 95.1 23.27C94.85 23.26 94.89 23.06 94.89 22.9C94.88 22.58 94.89 22.27 94.89 21.95C94.88 21.24 94.88 21.24 95.59 21.24ZM95.63 21.59C95.43 21.57 95.38 21.69 95.38 21.86C95.37 22.06 95.44 22.16 95.66 22.14C95.84 22.12 96 22.05 96.01 21.87C96.01 21.64 95.81 21.6 95.63 21.59Z" fill="#CC152F"/>
<path d="M95.63 21.59C95.81 21.6 96.01 21.64 96 21.87C96 22.06 95.83 22.12 95.65 22.14C95.43 22.16 95.36 22.06 95.37 21.86C95.38 21.69 95.42 21.57 95.63 21.59Z" fill="#FBF9F9"/>
</svg>
