<svg width="102" height="35" viewBox="0 0 102 35" fill="none" xmlns="http://www.w3.org/2000/svg">
<path d="M9.54999 11.76C10.35 11.76 11.14 11.76 11.94 11.75C12.11 11.75 12.17 11.81 12.21 11.98C12.74 14.73 13.31 17.47 13.78 20.24C13.8 20.36 13.8 20.49 13.89 20.62C14.43 17.77 15.15 14.97 15.78 12.16C15.85 11.84 15.97 11.74 16.3 11.75C16.92 11.78 17.55 11.77 18.17 11.75C18.4 11.74 18.48 11.82 18.53 12.05C19.09 14.78 19.76 17.49 20.18 20.25C20.2 20.35 20.22 20.45 20.27 20.63C20.54 18.95 20.86 17.38 21.19 15.81C21.45 14.56 21.72 13.32 21.97 12.07C22.02 11.82 22.12 11.74 22.38 11.75C22.97 11.77 23.56 11.77 24.14 11.75C24.45 11.74 24.5 11.82 24.42 12.11C23.76 14.54 23.12 16.97 22.48 19.4C22.17 20.56 21.85 21.73 21.56 22.9C21.49 23.16 21.4 23.29 21.11 23.31C20.82 23.34 20.54 23.36 20.25 23.35C19.42 23.3 18.83 22.84 18.59 21.97C18.34 21.03 18.15 20.07 17.94 19.12C17.63 17.71 17.31 16.3 17.12 14.86C17.11 14.82 17.09 14.78 17.07 14.7C16.9 14.86 16.97 15.06 16.94 15.22C16.53 17.36 15.93 19.46 15.43 21.58C15.32 22.05 15.19 22.52 15.09 22.99C15.05 23.19 14.95 23.29 14.74 23.29C14.6 23.29 14.47 23.33 14.33 23.34C12.98 23.44 12.34 22.97 12 21.58C11.32 18.85 10.66 16.12 9.98999 13.39C9.85999 12.87 9.76999 12.34 9.57999 11.83C9.54999 11.81 9.54999 11.78 9.54999 11.76Z" fill="#0372CE"/>
<path d="M81.52 27.35C81.37 27.29 81.22 27.24 81.08 27.17C80.62 26.95 80.49 26.69 80.53 26.18C80.68 24.58 80.82 22.98 80.96 21.39C81 20.95 81.35 20.69 81.86 20.69C82.36 20.69 82.73 20.94 82.77 21.34C82.93 23.01 83.08 24.67 83.23 26.34C83.26 26.67 83.09 26.91 82.82 27.08C82.65 27.19 82.46 27.26 82.28 27.35H81.52Z" fill="#FBB61D"/>
<path d="M38.58 15.67C39.68 13.99 42.63 13.89 43.56 15.92C43.73 15.73 43.89 15.53 44.06 15.35C45.26 14.12 47.32 14.07 48.4 15.25C48.95 15.85 49.2 16.6 49.25 17.39C49.35 19.26 49.27 21.14 49.3 23.01C49.3 23.18 49.23 23.22 49.07 23.22C48.44 23.21 47.8 23.21 47.17 23.22C46.91 23.23 46.94 23.07 46.94 22.9V18.59C46.94 18.2 46.93 17.81 46.82 17.43C46.61 16.7 46.17 16.34 45.49 16.35C44.83 16.36 44.26 16.81 44.08 17.47C44.02 17.71 44 17.94 44 18.17C44 19.74 43.99 21.32 44.01 22.89C44.01 23.16 43.94 23.24 43.66 23.23C43.1 23.21 42.53 23.21 41.97 23.23C41.71 23.24 41.64 23.16 41.64 22.91C41.65 21.42 41.65 19.92 41.65 18.43C41.65 18.01 41.62 17.6 41.46 17.21C41.1 16.32 40.05 16.07 39.33 16.72C38.88 17.12 38.7 17.64 38.7 18.23C38.7 19.78 38.7 21.33 38.71 22.88C38.71 23.14 38.66 23.24 38.37 23.23C37.79 23.21 37.22 23.22 36.64 23.23C36.43 23.23 36.34 23.2 36.34 22.95C36.35 20.25 36.35 17.55 36.34 14.85C36.34 14.66 36.38 14.59 36.59 14.59C37.18 14.6 37.77 14.6 38.35 14.59C38.53 14.59 38.6 14.64 38.59 14.82C38.57 15.11 38.58 15.39 38.58 15.67ZM55.39 22.31C54.88 22.92 54.21 23.25 53.44 23.38C51.82 23.66 50.43 22.79 50.14 21.29C49.91 20.13 50.43 18.98 51.48 18.35C52.37 17.81 53.37 17.64 54.38 17.56C54.58 17.55 54.77 17.53 54.97 17.54C55.21 17.56 55.24 17.45 55.21 17.25C55.13 16.55 54.61 16.12 53.77 16.08C52.97 16.04 52.21 16.21 51.49 16.55C51.39 16.6 51.29 16.65 51.16 16.71C51.02 16.23 50.88 15.77 50.74 15.32C50.68 15.12 50.83 15.09 50.95 15.03C52.06 14.51 53.23 14.32 54.45 14.4C54.7 14.42 54.96 14.46 55.2 14.51C56.53 14.82 57.36 15.76 57.56 17.16C57.61 17.53 57.62 17.89 57.63 18.26C57.66 19.84 57.54 21.43 57.74 23.01C57.76 23.18 57.69 23.22 57.54 23.26C56.6 23.54 55.98 23.27 55.39 22.31ZM55.29 19.9C55.29 19.66 55.28 19.51 55.29 19.37C55.31 19.15 55.25 19.06 55.01 19.08C54.61 19.11 54.21 19.13 53.81 19.23C53.45 19.32 53.1 19.44 52.83 19.71C52.46 20.08 52.4 20.54 52.54 21.02C52.66 21.42 52.96 21.64 53.37 21.7C53.95 21.79 54.46 21.62 54.88 21.19C55.27 20.8 55.32 20.32 55.29 19.9ZM29.1 22.33C28.37 23.16 27.43 23.48 26.35 23.41C25.27 23.34 24.44 22.85 24.03 21.84C23.6 20.8 23.75 19.8 24.5 18.94C25.17 18.17 26.09 17.88 27.06 17.7C27.6 17.6 28.16 17.54 28.71 17.55C28.92 17.55 28.96 17.47 28.95 17.28C28.9 16.59 28.37 16.14 27.54 16.09C26.7183 16.041 25.8988 16.2174 25.17 16.6C24.92 16.73 24.87 16.65 24.81 16.44C24.72 16.08 24.62 15.73 24.5 15.38C24.44 15.21 24.49 15.13 24.64 15.06C26.1 14.4 27.62 14.16 29.18 14.6C30.54 14.98 31.32 16.15 31.36 17.77C31.38 18.85 31.37 19.93 31.37 21.01C31.37 21.68 31.38 22.34 31.49 23C31.52 23.18 31.46 23.23 31.29 23.28C30.33 23.53 29.79 23.3 29.1 22.33ZM29 19.89C29 19.01 29 19.01 28.2 19.11C27.69 19.17 27.2 19.25 26.76 19.53C26.3 19.83 26.11 20.31 26.23 20.88C26.32 21.31 26.65 21.62 27.11 21.69C27.65 21.77 28.13 21.62 28.54 21.25C28.98 20.86 29.05 20.35 29 19.89ZM64.83 16.38C64.83 14.94 64.84 13.51 64.82 12.07C64.82 11.82 64.87 11.73 65.14 11.74C65.7 11.76 66.27 11.76 66.83 11.74C67.07 11.73 67.15 11.79 67.14 12.04C67.12 12.74 67.15 13.44 67.13 14.14C67.12 14.41 67.21 14.47 67.46 14.46C67.95 14.44 68.45 14.46 68.95 14.45C69.13 14.45 69.19 14.5 69.19 14.68C69.18 15.25 69.18 15.83 69.19 16.4C69.19 16.6 69.12 16.65 68.93 16.65C68.42 16.64 67.92 16.65 67.41 16.64C67.2 16.63 67.13 16.7 67.14 16.91C67.15 17.93 67.15 18.95 67.15 19.98C67.15 20.06 67.15 20.14 67.16 20.22C67.25 21.24 67.6 21.53 68.62 21.42C69.11 21.37 69.11 21.37 69.12 21.85C69.12 22.22 69.12 22.59 69.14 22.95C69.14 23.1 69.11 23.18 68.95 23.22C68.18 23.4 67.41 23.51 66.63 23.31C65.59 23.04 65.08 22.31 64.92 21.29C64.84 20.81 64.84 20.33 64.84 19.85C64.83 18.7 64.83 17.54 64.83 16.38ZM60.96 16.16C61.09 15.93 61.2 15.69 61.35 15.48C61.9 14.73 62.63 14.35 63.58 14.41C63.79 14.42 63.88 14.49 63.87 14.72C63.85 15.29 63.86 15.87 63.87 16.44C63.87 16.65 63.84 16.72 63.6 16.68C63.22 16.61 62.84 16.63 62.47 16.75C61.67 17.01 61.21 17.67 61.2 18.68C61.18 20.07 61.18 21.46 61.2 22.85C61.2 23.16 61.12 23.24 60.82 23.22C60.23 23.2 59.64 23.21 59.06 23.22C58.86 23.22 58.77 23.19 58.77 22.96C58.78 20.25 58.78 17.54 58.77 14.83C58.77 14.62 58.85 14.58 59.03 14.58C59.57 14.59 60.11 14.59 60.65 14.58C60.85 14.58 60.91 14.64 60.9 14.84C60.89 15.27 60.9 15.71 60.9 16.14C60.92 16.15 60.94 16.16 60.96 16.16ZM34.97 17.52C34.97 19.28 34.96 21.04 34.98 22.79C34.98 23.16 34.87 23.25 34.52 23.23C33.99 23.2 33.46 23.21 32.93 23.23C32.72 23.24 32.63 23.19 32.63 22.95C32.64 19.31 32.64 15.67 32.63 12.03C32.63 11.79 32.72 11.75 32.93 11.75C33.51 11.76 34.08 11.77 34.66 11.75C34.94 11.74 34.98 11.84 34.98 12.08C34.97 13.89 34.97 15.71 34.97 17.52Z" fill="#0372CE"/>
<path d="M81.8 7.56C82.23 7.56 82.57 7.64 82.87 7.85C83.12 8.03 83.27 8.26 83.24 8.58C83.09 10.22 82.95 11.87 82.79 13.51C82.75 13.96 82.39 14.23 81.86 14.22C81.33 14.21 81.01 13.95 80.96 13.47L80.51 8.57C80.48 8.26 80.62 8.04 80.85 7.86C81.15 7.64 81.49 7.56 81.8 7.56ZM73.01 13.18C73.06 12.66 73.36 12.16 73.93 11.83C74.25 11.65 74.56 11.66 74.87 11.88C76.21 12.82 77.55 13.75 78.89 14.69C79.29 14.97 79.34 15.36 79.06 15.84C78.78 16.31 78.4 16.46 77.97 16.26C76.51 15.59 75.05 14.9 73.58 14.24C73.16 14.05 72.99 13.75 73.01 13.18ZM90.74 13.35C90.76 13.78 90.57 14.06 90.17 14.24C88.71 14.91 87.25 15.59 85.78 16.26C85.36 16.46 84.95 16.29 84.69 15.83C84.43 15.37 84.49 14.93 84.86 14.67L88.82 11.91C89.24 11.62 89.55 11.61 89.96 11.91C90.46 12.27 90.72 12.75 90.74 13.35ZM73 21.62C73.01 21.15 73.16 20.86 73.53 20.69C75.02 20.01 76.5 19.32 77.98 18.64C78.39 18.45 78.77 18.6 79.04 19.05C79.33 19.53 79.28 19.94 78.9 20.21L74.85 23.03C74.54 23.25 74.22 23.24 73.91 23.06C73.34 22.72 73.03 22.21 73 21.62ZM90.74 21.54C90.72 22.17 90.45 22.67 89.93 23.01C89.62 23.22 89.28 23.3 88.93 23.05C87.55 22.09 86.18 21.13 84.8 20.17C84.7227 20.1184 84.6594 20.0485 84.6158 19.9665C84.5722 19.8845 84.5496 19.7929 84.55 19.7C84.48 18.89 85.2 18.37 85.93 18.7C87.35 19.35 88.77 20.01 90.19 20.66C90.57 20.84 90.76 21.12 90.74 21.54ZM92.45 22.58C92.45 22.9 92.18 23.17 91.86 23.17C91.53 23.17 91.26 22.91 91.26 22.59C91.26 22.28 91.54 22 91.86 22C92.17 22 92.45 22.27 92.45 22.58ZM92.11 22.87C92.33 22.72 92.36 22.49 92.19 22.29C92.1517 22.2437 92.1043 22.2058 92.0507 22.1786C91.9972 22.1513 91.9386 22.1353 91.8786 22.1316C91.8187 22.1279 91.7586 22.1364 91.7021 22.1568C91.6455 22.1771 91.5938 22.2089 91.55 22.25C91.36 22.43 91.37 22.75 91.56 22.93C91.74 23.09 91.97 23.07 92.11 22.87Z" fill="#FBB61D"/>
<path d="M55.29 19.9C55.32 20.32 55.27 20.8 54.89 21.19C54.47 21.62 53.97 21.78 53.38 21.7C52.97 21.64 52.67 21.42 52.55 21.02C52.41 20.54 52.47 20.09 52.84 19.71C53.11 19.44 53.45 19.31 53.82 19.23C54.21 19.14 54.61 19.11 55.02 19.08C55.26 19.07 55.32 19.16 55.3 19.37C55.28 19.51 55.29 19.66 55.29 19.9ZM29 19.89C29.04 20.35 28.97 20.85 28.54 21.25C28.13 21.62 27.65 21.77 27.11 21.69C26.8961 21.6663 26.6955 21.575 26.5372 21.4293C26.3789 21.2836 26.2713 21.0911 26.23 20.88C26.12 20.31 26.3 19.83 26.76 19.53C27.2 19.25 27.69 19.16 28.2 19.11C29 19.02 29 19.01 29 19.89ZM92.12 22.86C91.97 23.06 91.75 23.09 91.56 22.92C91.37 22.75 91.36 22.42 91.55 22.24C91.74 22.06 92.03 22.08 92.19 22.28C92.36 22.49 92.33 22.72 92.12 22.86C92.16 22.75 92.01 22.66 92.07 22.54C92.17 22.33 92.03 22.31 91.88 22.29C91.61 22.27 91.56 22.43 91.71 22.88C91.79 22.69 91.88 22.54 92 22.83C92 22.86 92.07 22.86 92.12 22.86Z" fill="#FDFDFE"/>
<path d="M92.12 22.86C92.08 22.85 92.01 22.86 92 22.84C91.88 22.56 91.79 22.7 91.71 22.89C91.56 22.44 91.61 22.28 91.88 22.3C92.03 22.31 92.17 22.34 92.07 22.55C92.01 22.66 92.15 22.75 92.12 22.86Z" fill="#FBB61D"/>
</svg>
